<?xml version="1.0" encoding="utf-8"?>
<!-- Generator: Adobe Illustrator 13.0.1, SVG Export Plug-In . SVG Version: 6.00 Build 14948)  -->
<!DOCTYPE svg PUBLIC "-//W3C//DTD SVG 1.0//EN" "http://www.w3.org/TR/2001/REC-SVG-20010904/DTD/svg10.dtd">
<svg version="1.0"
	 id="svg2" xmlns:inkscape="http://www.inkscape.org/namespaces/inkscape" inkscape:version="0.43" xmlns:rdf="http://www.w3.org/1999/02/22-rdf-syntax-ns#" xmlns:dc="http://purl.org/dc/elements/1.1/" xmlns:svg="http://www.w3.org/2000/svg" sodipodi:docbase="C:\Documents and Settings\empresa\Escritorio" sodipodi:version="0.32" sodipodi:docname="Estelada blava.svg" xmlns:sodipodi="http://inkscape.sourceforge.net/DTD/sodipodi-0.dtd" xmlns:cc="http://web.resource.org/cc/"
	 xmlns="http://www.w3.org/2000/svg" xmlns:xlink="http://www.w3.org/1999/xlink" x="0px" y="0px" width="675px" height="450px"
	 viewBox="0 0 675 450" enable-background="new 0 0 675 450" xml:space="preserve">
<sodipodi:namedview  id="base" inkscape:pageshadow="2" inkscape:window-width="1280" inkscape:zoom="0.26375083" borderopacity="1.0" inkscape:window-y="-4" inkscape:window-x="-4" inkscape:cx="72.112888" inkscape:cy="633.93997" inkscape:pageopacity="0.0" inkscape:current-layer="svg2" bordercolor="#666666" pagecolor="#ffffff" inkscape:window-height="934">
	</sodipodi:namedview>
<polygon id="red_triangle" fill="#002A8F" points="0,0 0,450 389.711,225 "/>
<polygon id="white_star" fill="#FFFFFF" points="129.904,157.5 145.059,204.142 194.1,204.142 154.425,232.967 169.579,279.608 
	129.904,250.783 90.229,279.608 105.383,232.967 65.707,204.142 114.749,204.142 "/>
<g id="g1393" transform="translate(1.15281e-5,-2.2e-3)">
	<polygon id="polygon1395" fill="#FFD700" points="0,0 675,0 675,450 0,450 	"/>
	<rect id="rect1397" x="0" y="250.002" fill="#CC0000" width="675" height="50"/>
	<rect id="rect1399" x="0" y="350.002" fill="#CC0000" width="675" height="50"/>
	<rect id="rect1401" x="0" y="150.002" fill="#CC0000" width="675" height="50"/>
	<rect id="rect1403" x="0" y="50.003" fill="#CC0000" width="675" height="50"/>
</g>
<polygon id="polygon1405" fill="#0F47AF" points="0,0 0,450 225,225 "/>
<polygon id="polygon1407" fill="#FFFFFF" points="98.088,159.608 112.981,205.444 161.175,205.444 122.185,233.773 137.078,279.608 
	98.088,251.28 59.097,279.608 73.99,233.773 35,205.444 83.195,205.444 "/>
</svg>
