<?xml version="1.0" encoding="UTF-8" standalone="no"?>
<!-- Created with Inkscape (http://www.inkscape.org/) -->

<svg
   xmlns:dc="http://purl.org/dc/elements/1.1/"
   xmlns:cc="http://creativecommons.org/ns#"
   xmlns:rdf="http://www.w3.org/1999/02/22-rdf-syntax-ns#"
   xmlns:svg="http://www.w3.org/2000/svg"
   xmlns="http://www.w3.org/2000/svg"
   xmlns:xlink="http://www.w3.org/1999/xlink"
   xmlns:sodipodi="http://sodipodi.sourceforge.net/DTD/sodipodi-0.dtd"
   xmlns:inkscape="http://www.inkscape.org/namespaces/inkscape"
   width="744.09448819"
   height="1052.3622047"
   id="svg2"
   version="1.1"
   inkscape:version="0.48.3.1 r9886"
   sodipodi:docname="leto.svg">
  <defs
     id="defs4">
    <inkscape:perspective
       sodipodi:type="inkscape:persp3d"
       inkscape:vp_x="49.423504 : 420.30084 : 1"
       inkscape:vp_y="0 : 695.66899 : 0"
       inkscape:vp_z="597.85112 : 420.30084 : 1"
       inkscape:persp3d-origin="323.63731 : 298.28488 : 1"
       id="perspective4981" />
    <path
       inkscape:connector-curvature="0"
       transform="matrix(0.35287021,0,0,0.35132314,411.7446,141.72222)"
       style="fill:none;stroke:#000000;stroke-width:1;stroke-miterlimit:4;stroke-opacity:1"
       d="m 327.85714,457.00504 c 0,47.93042 -38.85529,86.78571 -86.78571,86.78571 -47.93043,0 -86.78572,-38.85529 -86.78572,-86.78571 0,-47.93043 38.85529,-86.78572 86.78572,-86.78572 47.93042,0 86.78571,38.85529 86.78571,86.78572 z"
       id="path3812-8" />
    <path
       id="path3877-5"
       d="m 512.56036,302.27866 c 0,8.65971 -7.05099,15.67979 -15.74883,15.67979 -8.69785,0 -15.74884,-7.02008 -15.74884,-15.67979 0,-8.6597 7.05099,-15.67979 15.74884,-15.67979 8.69784,0 15.74883,7.02009 15.74883,15.67979 z"
       style="fill:none;stroke:#000000;stroke-width:0.18106984;stroke-miterlimit:4;stroke-opacity:1"
       inkscape:connector-curvature="0" />
    <path
       inkscape:connector-curvature="0"
       transform="matrix(0.35287021,0,0,0.35132314,411.7446,141.72222)"
       style="fill:none;stroke:#000000;stroke-width:1;stroke-miterlimit:4;stroke-opacity:1"
       d="m 327.85714,457.00504 c 0,47.93042 -38.85529,86.78571 -86.78571,86.78571 -47.93043,0 -86.78572,-38.85529 -86.78572,-86.78571 0,-47.93043 38.85529,-86.78572 86.78572,-86.78572 47.93042,0 86.78571,38.85529 86.78571,86.78572 z"
       id="path3812-7" />
    <path
       inkscape:connector-curvature="0"
       transform="matrix(0.5358943,0,0,0.5335448,367.62273,58.446006)"
       style="fill:none;stroke:#000000;stroke-width:1;stroke-miterlimit:4;stroke-opacity:1"
       d="m 327.85714,457.00504 c 0,47.93042 -38.85529,86.78571 -86.78571,86.78571 -47.93043,0 -86.78572,-38.85529 -86.78572,-86.78571 0,-47.93043 38.85529,-86.78572 86.78572,-86.78572 47.93042,0 86.78571,38.85529 86.78571,86.78572 z"
       id="path3810-7" />
    <path
       inkscape:connector-curvature="0"
       transform="matrix(0.7290464,0,0,0.72585007,321.05928,-29.438472)"
       style="fill:none;stroke:#000000;stroke-width:1;stroke-miterlimit:4;stroke-opacity:1"
       d="m 327.85714,457.00504 c 0,47.93042 -38.85529,86.78571 -86.78571,86.78571 -47.93043,0 -86.78572,-38.85529 -86.78572,-86.78571 0,-47.93043 38.85529,-86.78572 86.78572,-86.78572 47.93042,0 86.78571,38.85529 86.78571,86.78572 z"
       id="path3808-3" />
    <path
       inkscape:connector-curvature="0"
       transform="matrix(0.93863698,0,0,0.93452175,270.53298,-124.80248)"
       style="fill:none;stroke:#000000;stroke-width:1;stroke-miterlimit:4;stroke-opacity:1"
       d="m 327.85714,457.00504 c 0,47.93042 -38.85529,86.78571 -86.78571,86.78571 -47.93043,0 -86.78572,-38.85529 -86.78572,-86.78571 0,-47.93043 38.85529,-86.78572 86.78572,-86.78572 47.93042,0 86.78571,38.85529 86.78571,86.78572 z"
       id="path3806-5" />
    <path
       inkscape:connector-curvature="0"
       transform="matrix(1.1283304,0,0,1.1283304,224.80331,-213.37402)"
       style="fill:none;stroke:#000000;stroke-width:1;stroke-miterlimit:4;stroke-opacity:1"
       d="m 327.85714,457.00504 c 0,47.93042 -38.85529,86.78571 -86.78571,86.78571 -47.93043,0 -86.78572,-38.85529 -86.78572,-86.78571 0,-47.93043 38.85529,-86.78572 86.78572,-86.78572 47.93042,0 86.78571,38.85529 86.78571,86.78572 z"
       id="path3790-9" />
    <path
       id="path3877"
       d="m 223.55565,596.76936 c 0,8.65971 -7.05099,15.67979 -15.74883,15.67979 -8.69785,0 -15.74884,-7.02008 -15.74884,-15.67979 0,-8.6597 7.05099,-15.67979 15.74884,-15.67979 8.69784,0 15.74883,7.02009 15.74883,15.67979 z"
       style="fill:none;stroke:#000000;stroke-width:0.18106984;stroke-miterlimit:4;stroke-opacity:1"
       inkscape:connector-curvature="0" />
    <path
       style="fill:none;stroke:#000000;stroke-width:0.35209581;stroke-miterlimit:4;stroke-opacity:1"
       d="m 238.4309,596.76937 c 0,16.83906 -13.71087,30.48982 -30.62409,30.48982 -16.91322,0 -30.62409,-13.65076 -30.62409,-30.48982 0,-16.83907 13.71087,-30.48984 30.62409,-30.48984 16.91322,0 30.62409,13.65077 30.62409,30.48984 z"
       id="path3812"
       inkscape:connector-curvature="0" />
    <path
       style="fill:none;stroke:#000000;stroke-width:0.53471828;stroke-miterlimit:4;stroke-opacity:1"
       d="m 254.31479,596.76937 c 0,25.57303 -20.82233,46.30406 -46.50797,46.30406 -25.68564,0 -46.50797,-20.73103 -46.50797,-46.30406 0,-25.57303 20.82233,-46.30407 46.50797,-46.30407 25.68564,0 46.50797,20.73104 46.50797,46.30407 z"
       id="path3810"
       inkscape:connector-curvature="0" />
    <path
       style="fill:none;stroke:#000000;stroke-width:0.7274465;stroke-miterlimit:4;stroke-opacity:1"
       d="m 271.07763,596.76937 c 0,34.7903 -28.32731,62.99341 -63.27081,62.99341 -34.9435,0 -63.27081,-28.20311 -63.27081,-62.99341 0,-34.79031 28.32731,-62.99342 63.27081,-62.99342 34.9435,0 63.27081,28.20311 63.27081,62.99342 z"
       id="path3808"
       inkscape:connector-curvature="0" />
    <path
       style="fill:none;stroke:#000000;stroke-width:0.93657708;stroke-miterlimit:4;stroke-opacity:1"
       d="m 289.2671,596.76937 c 0,44.79202 -36.47101,81.10313 -81.46028,81.10313 -44.98927,0 -81.46028,-36.31111 -81.46028,-81.10313 0,-44.79203 36.47101,-81.10314 81.46028,-81.10314 44.98927,0 81.46028,36.31111 81.46028,81.10314 z"
       id="path3806"
       inkscape:connector-curvature="0" />
    <path
       style="fill:none;stroke:#000000;stroke-width:1.12833035;stroke-miterlimit:4;stroke-opacity:1"
       d="m 305.72977,596.76936 c 0,54.08135 -43.8416,97.92296 -97.92295,97.92296 -54.08136,0 -97.92297,-43.84161 -97.92297,-97.92296 0,-54.08136 43.84161,-97.92297 97.92297,-97.92297 54.08135,0 97.92295,43.84161 97.92295,97.92297 z"
       id="path3790"
       inkscape:connector-curvature="0" />
  </defs>
  <sodipodi:namedview
     id="base"
     pagecolor="#ffffff"
     bordercolor="#666666"
     borderopacity="1.0"
     inkscape:pageopacity="0.0"
     inkscape:pageshadow="2"
     inkscape:zoom="0.98994949"
     inkscape:cx="284.11308"
     inkscape:cy="493.63038"
     inkscape:document-units="px"
     inkscape:current-layer="layer1"
     showgrid="false"
     inkscape:window-width="1920"
     inkscape:window-height="1012"
     inkscape:window-x="0"
     inkscape:window-y="34"
     inkscape:window-maximized="1" />
  <metadata
     id="metadata7">
    <rdf:RDF>
      <cc:Work
         rdf:about="">
        <dc:format>image/svg+xml</dc:format>
        <dc:type
           rdf:resource="http://purl.org/dc/dcmitype/StillImage" />
        <dc:title></dc:title>
      </cc:Work>
    </rdf:RDF>
  </metadata>
  <g
     inkscape:label="Layer 1"
     inkscape:groupmode="layer"
     id="layer1">
    <path
       style="fill:#000000;opacity:1;fill-opacity:0"
       inkscape:connector-curvature="0"
       d="M 373.76487,553.29113 746.59992,304.73443 V 801.84785 z"
       id="path4771" />
    <path
       inkscape:connector-curvature="0"
       style="fill:none;stroke:none"
       d="m 193.99973,359.32736 c 1.65399,-2.17657 4.66339,0.10361 5.36498,1.91702 1.59559,4.12412 -1.9952,8.15145 -5.88542,8.97132 -6.24754,1.31669 -11.76594,-3.89378 -12.57767,-9.85384 -1.13417,-8.32736 5.79739,-15.42153 13.82225,-16.184 10.39696,-0.98787 19.09528,7.70194 19.79035,17.79064 0.85866,12.46317 -9.60674,22.77872 -21.75907,23.39672 -14.52791,0.73879 -26.46791,-11.51164 -27.00304,-25.72748 -0.62458,-16.59199 13.41659,-30.16084 29.69589,-30.60939 18.65568,-0.51403 33.85631,15.32158 34.21574,33.66431 0.40597,20.71917 -17.22665,37.55359 -37.63271,37.82207 -22.78255,0.29973 -41.25225,-19.13171 -41.42844,-41.60113 -0.19481,-24.84582 21.0368,-44.95189 45.56954,-45.03477 26.90906,-0.0909 48.65232,22.94191 48.64111,49.53795 -0.0122,28.97226 -24.84705,52.35338 -53.50636,52.24745 -31.03543,-0.11471 -56.05495,-26.75219 -55.85379,-57.47476 0.2167,-33.09858 28.65735,-59.75694 61.44318,-59.46014 35.16172,0.3183 63.45925,30.56253 63.06648,65.41158 -0.41954,37.22486 -32.46772,67.16187 -69.37999,66.67283 -39.28799,-0.5205 -70.86472,-34.37291 -70.27918,-73.3484 0.62123,-41.35112 36.27812,-74.56777 77.31681,-73.88552 43.41423,0.72174 78.27101,38.18333 77.49187,81.28522 -0.82208,45.47734 -40.08855,81.9744 -85.25364,81.09821 -47.54044,-0.92226 -85.67791,-41.99378 -84.70455,-89.22204 1.02232,-49.60356 43.89901,-89.38156 93.19045,-88.3109 51.66667,1.12224 93.08531,45.80425 91.91725,97.15887 -1.22208,53.72976 -47.70949,96.78913 -101.12728,95.52358 C 133.34162,459.79095 88.641435,411.49803 90.004555,356.01708 91.426025,298.16109 141.52454,251.82002 199.06865,253.2808 c 59.91909,1.52106 107.90111,53.42523 106.34264,113.03251 -1.27293,48.68518 -35.10561,91.82089 -81.74848,105.40727"
       id="path4098" />
    <path
       inkscape:connector-curvature="0"
       style="fill:none;stroke:none"
       d="m 347.30481,541.96922 c -0.63053,-2.32805 2.79406,-2.71298 4.19741,-2.04473 3.52271,1.67743 3.46024,6.48533 1.40906,9.26096 -3.41785,4.625 -10.2631,4.31964 -14.32453,0.77338 -5.77554,-5.04296 -5.20427,-14.08031 -0.1377,-19.38808 6.63286,-6.94863 17.91313,-6.10073 24.45164,0.49798 8.13307,8.20794 7.00358,21.75384 -1.13365,29.5152 -9.77548,9.32392 -25.59917,7.91022 -34.57876,-1.76934 -10.51873,-11.33867 -8.8193,-29.44741 2.40501,-39.64232 12.89914,-11.71612 33.29765,-9.73002 44.70588,3.0407 12.9153,14.45778 10.6419,37.14929 -3.67637,49.76943 -16.01516,14.11577 -41.00199,11.55463 -54.833,-4.31205 -15.31718,-17.5716 -12.468,-44.85545 4.94773,-59.89655 19.12735,-16.51934 48.70953,-13.38187 64.96011,5.58341 17.72206,20.68256 14.29612,52.56409 -6.21909,70.02367 -22.23736,18.92522 -56.41904,15.21068 -75.08722,-6.85477 -20.12876,-23.79182 -16.12551,-60.27431 7.49045,-80.15079 25.346,-21.33258 64.12983,-17.04053 85.21434,8.12613 16.45763,19.64398 19.11026,48.03688 7.17757,70.61715"
       id="path4135" />
    <text
       transform="matrix(0.55785294,0.82993982,-0.82993982,0.55785294,595.2395,-18.178705)"
       xml:space="preserve"
       style="font-size:18px;font-style:normal;font-variant:normal;font-weight:bold;font-stretch:normal;text-align:start;line-height:125%;letter-spacing:0px;word-spacing:-1px;writing-mode:lr-tb;text-anchor:start;fill:#000000;fill-opacity:1;stroke:none;font-family:Franchise;-inkscape-font-specification:Franchise Bold"
       id="text4094"
       sodipodi:linespacing="125%"><textPath
         xlink:href="#path4098"
         id="textPath4119">“Jezme a pijme,” řekl Hugo.”Dejte sem večeři! Tučný sýr, zvěřinu, ptáky, jehňata, vše, co se líhne živé, a vše, co se líhne z vejce. Dejte sem vše, co zraje jedlého, vše, co je oploutveno, a všechny druhy plžů, kteří se požívají ve vzdělaných zemích. Dejte to sem! Je večer, země se otočila a tu bývá obyčej jísti.</textPath></text>
    <text
       xml:space="preserve"
       style="font-size:18px;font-style:normal;font-variant:normal;font-weight:bold;font-stretch:normal;text-align:start;line-height:125%;letter-spacing:0px;word-spacing:-1px;writing-mode:lr-tb;text-anchor:start;fill:#000000;fill-opacity:1;stroke:none;font-family:Franchise;-inkscape-font-specification:Franchise Bold"
       id="text4137"
       sodipodi:linespacing="125%"
       transform="matrix(0.84982679,0.52706206,-0.52706206,0.84982679,204.11295,-271.65266)"><textPath
         xlink:href="#path4135"
         id="textPath4154"> “Majore, stal jste se žroutem nebo mluvkou? Chcete ukázati zuby nebo jazyk? Není mi volno, mluví-li se příliš.  .ení vám volno? Vždyť jsme sotva počali s večeří.”</textPath></text>
    <text
       xml:space="preserve"
       style="font-size:28.38377953px;font-style:normal;font-variant:normal;font-weight:normal;font-stretch:normal;text-align:start;line-height:0%;letter-spacing:0.38520843px;word-spacing:0px;writing-mode:lr-tb;text-anchor:start;fill:#d7141a;fill-opacity:1;stroke:none;font-family:Caviar Dreams;-inkscape-font-specification:Caviar Dreams"
       x="187.4588"
       y="568.83972"
       id="text4917"
       sodipodi:linespacing="0%"
       transform="scale(1.0137064,0.98647892)"><tspan
         sodipodi:role="line"
         x="187.4588"
         y="568.83972"
         id="tspan4921">agosto <tspan
   style="font-size:28.38377953px;font-style:normal;font-variant:normal;font-weight:normal;font-stretch:normal;text-align:start;line-height:0%;letter-spacing:0px;word-spacing:0px;writing-mode:lr-tb;text-anchor:start;fill:#d7141a;fill-opacity:1;font-family:Caviar Dreams;-inkscape-font-specification:Caviar Dreams"
   id="tspan3025">de</tspan> cine checo</tspan></text>
    <text
       xml:space="preserve"
       style="font-size:28px;font-style:normal;font-variant:normal;font-weight:normal;font-stretch:normal;text-align:start;line-height:0%;letter-spacing:3px;word-spacing:5px;writing-mode:lr-tb;text-anchor:start;fill:#11457e;fill-opacity:1;stroke:none;font-family:Caviar Dreams;-inkscape-font-specification:Caviar Dreams"
       x="190.60486"
       y="531.1889"
       id="text4923"
       sodipodi:linespacing="0%"><tspan
         sodipodi:role="line"
         id="tspan4925"
         x="190.60486"
         y="531.1889"
         style="font-size:28px;font-style:normal;font-variant:normal;font-weight:normal;font-stretch:normal;text-align:start;line-height:0%;letter-spacing:3px;word-spacing:5px;writing-mode:lr-tb;text-anchor:start;fill:#11457e;fill-opacity:1;font-family:Caviar Dreams;-inkscape-font-specification:Caviar Dreams">český filmový srpen</tspan></text>
    <text
       xml:space="preserve"
       style="font-size:28px;font-style:normal;font-variant:normal;font-weight:normal;font-stretch:normal;text-align:start;line-height:0%;letter-spacing:5px;word-spacing:0px;writing-mode:lr-tb;text-anchor:start;fill:#000000;fill-opacity:1;stroke:none;font-family:Caviar Dreams;-inkscape-font-specification:Caviar Dreams"
       x="190.60486"
       y="590.69183"
       id="text4929"
       sodipodi:linespacing="0%"><tspan
         sodipodi:role="line"
         id="tspan4931"
         x="190.60486"
         y="590.69183">czech film august</tspan></text>
    <text
       xml:space="preserve"
       style="font-size:28.38505363px;font-style:normal;font-variant:normal;font-weight:normal;font-stretch:normal;text-align:start;line-height:0%;letter-spacing:0.51701343px;word-spacing:0px;writing-mode:lr-tb;text-anchor:start;fill:#000000;fill-opacity:1;stroke:none;font-family:Caviar Dreams;-inkscape-font-specification:Caviar Dreams"
       x="187.45026"
       y="508.96579"
       id="text4937"
       sodipodi:linespacing="0%"
       transform="scale(1.0137519,0.98643465)"><tspan
         sodipodi:role="line"
         id="tspan4939"
         x="187.45026"
         y="508.96579"
         dx="0 0 0 0 0 0 0 0 0 0 0 0 0 0 0 0 0 0 -13.4322">agost del cinema  txec</tspan><tspan
         sodipodi:role="line"
         x="187.45026"
         y="508.96579"
         id="tspan4941" /></text>
    <path
       id="path4121"
       d="M 537.01005,541.16538 745.2551,29.713695 V 1052.617 z"
       inkscape:connector-curvature="0"
       style="opacity:0.27272728;fill:#e5e5e5;fill-opacity:1" />
    <path
       style="opacity:0.27272728;fill:#d7d7d7;fill-opacity:1"
       d="m -318.02742,467.41484 0,584.28576 638.44107,0 -319.2206212,-584.28576 -319.2204488,0 z"
       id="rect4136"
       inkscape:connector-curvature="0" />
    <flowRoot
       xml:space="preserve"
       id="flowRoot3017"
       style="fill:black;stroke:none;stroke-opacity:1;stroke-width:1px;stroke-linejoin:miter;stroke-linecap:butt;fill-opacity:1;font-family:Sans;font-style:normal;font-weight:normal;font-size:18px;line-height:123.00000191000000882%;letter-spacing:0px;word-spacing:0px;-inkscape-font-specification:Sans;font-stretch:normal;font-variant:normal;text-anchor:start;text-align:start;writing-mode:lr"><flowRegion
         id="flowRegion3019"><rect
           id="rect3021"
           width="692.14288"
           height="245.71428"
           x="80.714287"
           y="415.93362" /></flowRegion><flowPara
         id="flowPara3023"></flowPara></flowRoot>    <flowRoot
       xml:space="preserve"
       style="font-size:30.9823246px;font-style:normal;font-variant:normal;font-weight:normal;font-stretch:normal;text-align:center;line-height:81.99999928%;letter-spacing:0.03px;word-spacing:0px;writing-mode:lr-tb;text-anchor:middle;fill:#000000;fill-opacity:1;stroke:none;font-family:Caviar Dreams;-inkscape-font-specification:Caviar Dreams"
       id="flowRoot3047"
       transform="matrix(0.6223601,0,0,0.66456711,372.15004,1040.1727)"><flowRegion
         id="flowRegion3049" /><flowPara
         id="flowPara3053"><flowSpan
           style="letter-spacing:0.03px"
           id="flowSpan3063">agost del cinema txec</flowSpan><flowSpan
           style="letter-spacing:0.03px"
           id="flowSpan3647"> český filmový srpen</flowSpan><flowSpan
           style="letter-spacing:0.03px"
           id="flowSpan3329"> agosto de cine checo</flowSpan><flowSpan
           style="letter-spacing:0.03px"
           id="flowSpan3813"><flowSpan
   style="letter-spacing:0.03px"
   id="flowSpan4081"> czech film </flowSpan>august</flowSpan></flowPara></flowRoot>    <path
       style="fill:#11457e"
       inkscape:connector-curvature="0"
       d="M 873.39084,399.09188 1199.8237,198.11484 v 401.95404 z"
       id="path4940" />
    <path
       inkscape:connector-curvature="0"
       id="path4942"
       d="m 790.74979,539.13568 0,206.48871 113.53199,0 -56.76598,-206.48871 -56.76601,0 z"
       style="fill:#d7141a" />
    <g
       id="g4976"
       transform="matrix(0.45825894,0,0,0.52186347,964.58663,-172.68879)">
      <polygon
         points="389.711,225 0,0 0,450 "
         id="red_triangle"
         style="fill:#002a8f" />
      <polygon
         points="129.904,250.783 90.229,279.608 105.383,232.967 65.707,204.142 114.749,204.142 129.904,157.5 145.059,204.142 194.1,204.142 154.425,232.967 169.579,279.608 "
         id="white_star"
         style="fill:#ffffff" />
      <g
         transform="translate(1.15281e-5,-0.0022)"
         id="g1393">
	<polygon
   points="675,0 675,450 0,450 0,0 "
   id="polygon1395"
   style="fill:#ffd700" />

	<rect
   height="50"
   width="675"
   y="250.002"
   x="0"
   id="rect1397"
   style="fill:#cc0000" />

	<rect
   height="50"
   width="675"
   y="350.00201"
   x="0"
   id="rect1399"
   style="fill:#cc0000" />

	<rect
   height="50"
   width="675"
   y="150.002"
   x="0"
   id="rect1401"
   style="fill:#cc0000" />

	<rect
   height="50"
   width="675"
   y="50.002998"
   x="0"
   id="rect1403"
   style="fill:#cc0000" />

</g>
      <polygon
         points="225,225 0,0 0,450 "
         id="polygon1405"
         style="fill:#0f47af" />
      <polygon
         points="98.088,251.28 59.097,279.608 73.99,233.773 35,205.444 83.195,205.444 98.088,159.608 112.981,205.444 161.175,205.444 122.185,233.773 137.078,279.608 "
         id="polygon1407"
         style="fill:#ffffff" />
    </g>
  </g>
</svg>
