<?xml version="1.0" encoding="UTF-8" standalone="no"?>
<!-- Created with Inkscape (http://www.inkscape.org/) -->

<svg
   xmlns:dc="http://purl.org/dc/elements/1.1/"
   xmlns:cc="http://creativecommons.org/ns#"
   xmlns:rdf="http://www.w3.org/1999/02/22-rdf-syntax-ns#"
   xmlns:svg="http://www.w3.org/2000/svg"
   xmlns="http://www.w3.org/2000/svg"
   xmlns:xlink="http://www.w3.org/1999/xlink"
   xmlns:sodipodi="http://sodipodi.sourceforge.net/DTD/sodipodi-0.dtd"
   xmlns:inkscape="http://www.inkscape.org/namespaces/inkscape"
   width="744.09448819"
   height="1052.3622047"
   id="svg2"
   version="1.1"
   inkscape:version="0.48.3.1 r9886"
   sodipodi:docname="k4.svg">
  <defs
     id="defs4">
    <inkscape:perspective
       sodipodi:type="inkscape:persp3d"
       inkscape:vp_x="49.423504 : 420.30084 : 1"
       inkscape:vp_y="0 : 695.66899 : 0"
       inkscape:vp_z="597.85112 : 420.30084 : 1"
       inkscape:persp3d-origin="323.63731 : 298.28488 : 1"
       id="perspective4981" />
    <path
       inkscape:connector-curvature="0"
       transform="matrix(0.35287021,0,0,0.35132314,411.7446,141.72222)"
       style="fill:none;stroke:#000000;stroke-width:1;stroke-miterlimit:4;stroke-opacity:1"
       d="m 327.85714,457.00504 c 0,47.93042 -38.85529,86.78571 -86.78571,86.78571 -47.93043,0 -86.78572,-38.85529 -86.78572,-86.78571 0,-47.93043 38.85529,-86.78572 86.78572,-86.78572 47.93042,0 86.78571,38.85529 86.78571,86.78572 z"
       id="path3812-8" />
    <path
       id="path3877-5"
       d="m 512.56036,302.27866 c 0,8.65971 -7.05099,15.67979 -15.74883,15.67979 -8.69785,0 -15.74884,-7.02008 -15.74884,-15.67979 0,-8.6597 7.05099,-15.67979 15.74884,-15.67979 8.69784,0 15.74883,7.02009 15.74883,15.67979 z"
       style="fill:none;stroke:#000000;stroke-width:0.18106984;stroke-miterlimit:4;stroke-opacity:1"
       inkscape:connector-curvature="0" />
    <path
       inkscape:connector-curvature="0"
       transform="matrix(0.35287021,0,0,0.35132314,411.7446,141.72222)"
       style="fill:none;stroke:#000000;stroke-width:1;stroke-miterlimit:4;stroke-opacity:1"
       d="m 327.85714,457.00504 c 0,47.93042 -38.85529,86.78571 -86.78571,86.78571 -47.93043,0 -86.78572,-38.85529 -86.78572,-86.78571 0,-47.93043 38.85529,-86.78572 86.78572,-86.78572 47.93042,0 86.78571,38.85529 86.78571,86.78572 z"
       id="path3812-7" />
    <path
       inkscape:connector-curvature="0"
       transform="matrix(0.5358943,0,0,0.5335448,367.62273,58.446006)"
       style="fill:none;stroke:#000000;stroke-width:1;stroke-miterlimit:4;stroke-opacity:1"
       d="m 327.85714,457.00504 c 0,47.93042 -38.85529,86.78571 -86.78571,86.78571 -47.93043,0 -86.78572,-38.85529 -86.78572,-86.78571 0,-47.93043 38.85529,-86.78572 86.78572,-86.78572 47.93042,0 86.78571,38.85529 86.78571,86.78572 z"
       id="path3810-7" />
    <path
       inkscape:connector-curvature="0"
       transform="matrix(0.7290464,0,0,0.72585007,321.05928,-29.438472)"
       style="fill:none;stroke:#000000;stroke-width:1;stroke-miterlimit:4;stroke-opacity:1"
       d="m 327.85714,457.00504 c 0,47.93042 -38.85529,86.78571 -86.78571,86.78571 -47.93043,0 -86.78572,-38.85529 -86.78572,-86.78571 0,-47.93043 38.85529,-86.78572 86.78572,-86.78572 47.93042,0 86.78571,38.85529 86.78571,86.78572 z"
       id="path3808-3" />
    <path
       inkscape:connector-curvature="0"
       transform="matrix(0.93863698,0,0,0.93452175,270.53298,-124.80248)"
       style="fill:none;stroke:#000000;stroke-width:1;stroke-miterlimit:4;stroke-opacity:1"
       d="m 327.85714,457.00504 c 0,47.93042 -38.85529,86.78571 -86.78571,86.78571 -47.93043,0 -86.78572,-38.85529 -86.78572,-86.78571 0,-47.93043 38.85529,-86.78572 86.78572,-86.78572 47.93042,0 86.78571,38.85529 86.78571,86.78572 z"
       id="path3806-5" />
    <path
       inkscape:connector-curvature="0"
       transform="matrix(1.1283304,0,0,1.1283304,224.80331,-213.37402)"
       style="fill:none;stroke:#000000;stroke-width:1;stroke-miterlimit:4;stroke-opacity:1"
       d="m 327.85714,457.00504 c 0,47.93042 -38.85529,86.78571 -86.78571,86.78571 -47.93043,0 -86.78572,-38.85529 -86.78572,-86.78571 0,-47.93043 38.85529,-86.78572 86.78572,-86.78572 47.93042,0 86.78571,38.85529 86.78571,86.78572 z"
       id="path3790-9" />
    <path
       id="path3877"
       d="m 223.55565,596.76936 c 0,8.65971 -7.05099,15.67979 -15.74883,15.67979 -8.69785,0 -15.74884,-7.02008 -15.74884,-15.67979 0,-8.6597 7.05099,-15.67979 15.74884,-15.67979 8.69784,0 15.74883,7.02009 15.74883,15.67979 z"
       style="fill:none;stroke:#000000;stroke-width:0.18106984;stroke-miterlimit:4;stroke-opacity:1"
       inkscape:connector-curvature="0" />
    <path
       style="fill:none;stroke:#000000;stroke-width:0.35209581;stroke-miterlimit:4;stroke-opacity:1"
       d="m 238.4309,596.76937 c 0,16.83906 -13.71087,30.48982 -30.62409,30.48982 -16.91322,0 -30.62409,-13.65076 -30.62409,-30.48982 0,-16.83907 13.71087,-30.48984 30.62409,-30.48984 16.91322,0 30.62409,13.65077 30.62409,30.48984 z"
       id="path3812"
       inkscape:connector-curvature="0" />
    <path
       style="fill:none;stroke:#000000;stroke-width:0.53471828;stroke-miterlimit:4;stroke-opacity:1"
       d="m 254.31479,596.76937 c 0,25.57303 -20.82233,46.30406 -46.50797,46.30406 -25.68564,0 -46.50797,-20.73103 -46.50797,-46.30406 0,-25.57303 20.82233,-46.30407 46.50797,-46.30407 25.68564,0 46.50797,20.73104 46.50797,46.30407 z"
       id="path3810"
       inkscape:connector-curvature="0" />
    <path
       style="fill:none;stroke:#000000;stroke-width:0.7274465;stroke-miterlimit:4;stroke-opacity:1"
       d="m 271.07763,596.76937 c 0,34.7903 -28.32731,62.99341 -63.27081,62.99341 -34.9435,0 -63.27081,-28.20311 -63.27081,-62.99341 0,-34.79031 28.32731,-62.99342 63.27081,-62.99342 34.9435,0 63.27081,28.20311 63.27081,62.99342 z"
       id="path3808"
       inkscape:connector-curvature="0" />
    <path
       style="fill:none;stroke:#000000;stroke-width:0.93657708;stroke-miterlimit:4;stroke-opacity:1"
       d="m 289.2671,596.76937 c 0,44.79202 -36.47101,81.10313 -81.46028,81.10313 -44.98927,0 -81.46028,-36.31111 -81.46028,-81.10313 0,-44.79203 36.47101,-81.10314 81.46028,-81.10314 44.98927,0 81.46028,36.31111 81.46028,81.10314 z"
       id="path3806"
       inkscape:connector-curvature="0" />
    <path
       style="fill:none;stroke:#000000;stroke-width:1.12833035;stroke-miterlimit:4;stroke-opacity:1"
       d="m 305.72977,596.76936 c 0,54.08135 -43.8416,97.92296 -97.92295,97.92296 -54.08136,0 -97.92297,-43.84161 -97.92297,-97.92296 0,-54.08136 43.84161,-97.92297 97.92297,-97.92297 54.08135,0 97.92295,43.84161 97.92295,97.92297 z"
       id="path3790"
       inkscape:connector-curvature="0" />
  </defs>
  <sodipodi:namedview
     id="base"
     pagecolor="#ffffff"
     bordercolor="#666666"
     borderopacity="1.0"
     inkscape:pageopacity="0.0"
     inkscape:pageshadow="2"
     inkscape:zoom="0.98994949"
     inkscape:cx="453.3803"
     inkscape:cy="430.36178"
     inkscape:document-units="px"
     inkscape:current-layer="layer1"
     showgrid="false"
     inkscape:window-width="1920"
     inkscape:window-height="1012"
     inkscape:window-x="0"
     inkscape:window-y="34"
     inkscape:window-maximized="1" />
  <metadata
     id="metadata7">
    <rdf:RDF>
      <cc:Work
         rdf:about="">
        <dc:format>image/svg+xml</dc:format>
        <dc:type
           rdf:resource="http://purl.org/dc/dcmitype/StillImage" />
        <dc:title />
      </cc:Work>
    </rdf:RDF>
  </metadata>
  <g
     inkscape:groupmode="layer"
     id="layer2"
     inkscape:label="Layer"
     sodipodi:insensitive="true">
    <rect
       style="fill:#f6f6f6;fill-opacity:1;stroke:none"
       id="rect5108"
       width="765.69562"
       height="1141.4723"
       x="-16.432779"
       y="-85.163742" />
  </g>
  <g
     inkscape:label="Layer 1"
     inkscape:groupmode="layer"
     id="layer1">
    <path
       style="fill:#000000;opacity:1;fill-opacity:0"
       inkscape:connector-curvature="0"
       d="M 373.76487,553.29113 746.59992,304.73443 V 801.84785 z"
       id="path4771" />
    <path
       inkscape:connector-curvature="0"
       style="fill:none;stroke:none"
       d="m 193.99973,363.48473 c 1.65399,-2.09606 4.66339,0.0998 5.36498,1.84611 1.59559,3.97157 -1.9952,7.84993 -5.88542,8.63947 -6.24754,1.26799 -11.76594,-3.74975 -12.57767,-9.48935 -1.13417,-8.01933 5.79739,-14.85109 13.82225,-15.58536 10.39696,-0.95133 19.09528,7.41705 19.79035,17.13257 0.85866,12.00217 -9.60674,21.93615 -21.75907,22.53129 -14.52791,0.71146 -26.46791,-11.08583 -27.00304,-24.77583 -0.62458,-15.97826 13.41659,-29.04521 29.69589,-29.47717 18.65568,-0.49501 33.85631,14.75485 34.21574,32.41909 0.40597,19.95278 -17.22665,36.1645 -37.63271,36.42305 -22.78255,0.28864 -41.25225,-18.42404 -41.42844,-40.06233 -0.19481,-23.92678 21.0368,-43.28914 45.56954,-43.36895 26.90906,-0.0875 48.65232,22.0933 48.64111,47.70556 -0.0122,27.90059 -24.84705,50.41686 -53.50636,50.31485 -31.03543,-0.11047 -56.05495,-25.76264 -55.85379,-55.3488 0.2167,-31.87428 28.65735,-57.54656 61.44318,-57.26074 35.16172,0.30653 63.45925,29.43204 63.06648,62.99204 -0.41954,35.84793 -32.46772,64.67758 -69.37999,64.20663 -39.28799,-0.50124 -70.86472,-33.10147 -70.27918,-70.63528 0.62123,-39.82156 36.27812,-71.80954 77.31681,-71.15253 43.41423,0.69504 78.27101,36.77095 77.49187,78.27852 -0.82208,43.79516 -40.08855,78.94221 -85.25364,78.09843 -47.54044,-0.88815 -85.67791,-40.44045 -84.70455,-85.92176 1.02232,-47.76875 43.89901,-86.07538 93.19045,-85.04433 51.66667,1.08073 93.08531,44.10998 91.91725,93.56502 -1.22208,51.74232 -47.70949,93.20895 -101.12728,91.99021 -55.79287,-1.27292 -100.493055,-47.77951 -99.129935,-101.20825 1.42147,-55.71592 51.519985,-100.34286 109.064095,-98.93611 59.91909,1.46479 107.90111,51.44905 106.34264,108.85149 -1.27293,46.88434 -35.10561,88.42448 -81.74848,101.50831"
       id="path4098" />
    <path
       inkscape:connector-curvature="0"
       style="fill:none;stroke:none"
       d="m 342.5754,544.70603 c -0.58886,-2.1742 2.60941,-2.53369 3.92001,-1.9096 3.2899,1.56657 3.23156,6.05673 1.31594,8.64892 -3.19197,4.31935 -9.58483,4.03417 -13.37785,0.72227 -5.39385,-4.70968 -4.86033,-13.14977 -0.1286,-18.10676 6.19451,-6.48941 16.72929,-5.69755 22.83568,0.46507 7.59557,7.66549 6.54073,20.31617 -1.05873,27.5646 -9.12944,8.70772 -23.90737,7.38745 -32.29352,-1.65241 -9.82357,-10.58932 -8.23645,-27.50129 2.24607,-37.02244 12.04666,-10.94183 31.09708,-9.08699 41.75136,2.83974 12.06176,13.5023 9.9386,34.69418 -3.43341,46.48028 -14.95675,13.18289 -38.29225,10.79101 -51.2092,-4.02708 -14.3049,-16.41033 -11.64402,-41.89105 4.62074,-55.93811 17.86327,-15.42761 45.49043,-12.49749 60.66704,5.21441 16.55085,19.3157 13.35132,49.09025 -5.80808,65.39596 -20.76774,17.67449 -52.69043,14.20544 -70.12487,-6.40175 -18.7985,-22.21947 -15.05981,-56.29091 6.99542,-74.8538 23.67094,-19.92276 59.89163,-15.91436 79.58271,7.58909 15.36998,18.34575 17.8473,44.86223 6.70322,65.95022"
       id="path4135" />
    <path
       style="fill:#ffffff;stroke:none"
       inkscape:connector-curvature="0"
       d="M 242.45651,468.93014 -16.804706,-102.39007 V 1040.2501 z"
       id="path5090" />
    <text
       transform="matrix(0.76659478,1.1691486,-1.1404933,0.78585572,569.80721,-247.22913)"
       xml:space="preserve"
       style="font-size:18px;font-style:normal;font-variant:normal;font-weight:bold;font-stretch:normal;text-align:start;line-height:125%;letter-spacing:0px;word-spacing:-1px;writing-mode:lr-tb;text-anchor:start;fill:#ed3f43;fill-opacity:1;stroke:none;font-family:Franchise;-inkscape-font-specification:Franchise Bold"
       id="text4094"
       sodipodi:linespacing="125%"><textPath
         xlink:href="#path4098"
         id="textPath4119">“Jezme a pijme,” řekl Hugo.”Dejte sem večeři! Tučný sýr, zvěřinu, ptáky, jehňata, vše, co se líhne živé, a vše, co se líhne z vejce. Dejte sem vše, co zraje jedlého, vše, co je oploutveno, a všechny druhy plžů, kteří se požívají ve vzdělaných zemích. Dejte to sem! Je večer, země se otočila a tu bývá obyčej jísti.</textPath></text>
    <text
       xml:space="preserve"
       style="font-size:18px;font-style:normal;font-variant:normal;font-weight:bold;font-stretch:normal;text-align:start;line-height:125%;letter-spacing:0px;word-spacing:-1px;writing-mode:lr-tb;text-anchor:start;fill:#236bb8;fill-opacity:1;stroke:none;font-family:Franchise;-inkscape-font-specification:Franchise Bold"
       id="text4137"
       sodipodi:linespacing="125%"
       transform="matrix(-1.1270911,0.0485924,-0.0485924,-1.1270911,939.53881,922.78147)"><textPath
         xlink:href="#path4135"
         id="textPath4154"> “Majore, stal jste se žroutem nebo mluv<tspan
   style="font-size:22.16040752px"
   id="tspan3066">k</tspan>ou? Chcete ukázati zuby nebo jazyk? Není mi volno, mluví-li se příliš.  .ení vám volno? Vždyť jsme sotva počali s večeří.”</textPath></text>
    <text
       xml:space="preserve"
       style="font-size:26.50795746px;font-style:normal;font-variant:normal;font-weight:normal;font-stretch:normal;text-align:start;line-height:0%;letter-spacing:0.27000001px;word-spacing:0px;writing-mode:lr-tb;text-anchor:start;fill:#d7141a;fill-opacity:1;stroke:none;font-family:Caviar Dreams;-inkscape-font-specification:Caviar Dreams"
       x="228.47188"
       y="497.18512"
       id="text4917"
       sodipodi:linespacing="0%"
       transform="scale(1.0137064,0.98647892)"><tspan
         sodipodi:role="line"
         x="228.47188"
         y="497.18512"
         id="tspan4921"
         style="fill:#000000"><tspan
   style="font-weight:bold;fill:#000000;fill-opacity:1"
   id="tspan5209">ag</tspan>osto <tspan
   style="font-size:26.50795746px;font-style:normal;font-variant:normal;font-weight:normal;font-stretch:normal;text-align:start;line-height:0%;letter-spacing:0.27000001px;word-spacing:0px;writing-mode:lr-tb;text-anchor:start;fill:#000000;fill-opacity:1;font-family:Caviar Dreams;-inkscape-font-specification:Caviar Dreams"
   id="tspan3025">de</tspan> cine checo</tspan></text>
    <text
       xml:space="preserve"
       style="font-size:25.43327140999999969px;font-style:normal;font-variant:normal;font-weight:normal;font-stretch:normal;text-align:start;line-height:0%;letter-spacing:2px;word-spacing:-5.15628958000000015px;writing-mode:lr-tb;text-anchor:start;fill:#000000;fill-opacity:1;stroke:none;font-family:Caviar Dreams;-inkscape-font-specification:Caviar Dreams"
       x="262.2774"
       y="450.75418"
       id="text4923"
       sodipodi:linespacing="0%"
       transform="scale(1.023211,0.97731552)"><tspan
         sodipodi:role="line"
         id="tspan4925"
         x="262.2774"
         y="450.75418"
         style="font-size:25.43327140999999969px;font-style:normal;font-variant:normal;font-weight:normal;font-stretch:normal;text-align:start;line-height:0%;letter-spacing:2px;word-spacing:-5.15628958000000015px;writing-mode:lr-tb;text-anchor:start;fill:#000000;fill-opacity:1;font-family:Caviar Dreams;-inkscape-font-specification:Caviar Dreams">český filmový srpen</tspan></text>
    <text
       xml:space="preserve"
       style="font-size:26.14953995px;font-style:normal;font-variant:normal;font-weight:normal;font-stretch:normal;text-align:start;line-height:0%;letter-spacing:2px;word-spacing:0px;writing-mode:lr-tb;text-anchor:start;fill:#000000;fill-opacity:1;stroke:none;font-family:Caviar Dreams;-inkscape-font-specification:Caviar Dreams"
       x="276.3634"
       y="516.24017"
       id="text4929"
       sodipodi:linespacing="0%"><tspan
         sodipodi:role="line"
         id="tspan4931"
         x="276.3634"
         y="516.24017">czech film august</tspan></text>
    <text
       xml:space="preserve"
       style="font-size:26.50914764px;font-style:normal;font-variant:normal;font-weight:normal;font-stretch:normal;text-align:start;line-height:0%;letter-spacing:0.48284513px;word-spacing:0px;writing-mode:lr-tb;text-anchor:start;fill:#11457e;fill-opacity:1;stroke:none;font-family:Caviar Dreams;-inkscape-font-specification:Caviar Dreams"
       x="228.55812"
       y="472.82159"
       id="text4937"
       sodipodi:linespacing="0%"
       transform="scale(1.0137519,0.98643465)"><tspan
         sodipodi:role="line"
         id="tspan4939"
         x="228.55812"
         y="472.82159"
         dx="0 0 0 0 0 0 0 0 0 0 0 0 0 0 0 0 0 0 -12.544496"
         style="fill:#000000"><tspan
   style="font-weight:bold;fill:#000000;fill-opacity:1"
   id="tspan5207">ag</tspan>ost del cinema  txec</tspan><tspan
         sodipodi:role="line"
         x="228.55812"
         y="472.82159"
         id="tspan4941"
         style="fill:#000000" /></text>
    <flowRoot
       xml:space="preserve"
       id="flowRoot3017"
       style="fill:black;stroke:none;stroke-opacity:1;stroke-width:1px;stroke-linejoin:miter;stroke-linecap:butt;fill-opacity:1;font-family:Sans;font-style:normal;font-weight:normal;font-size:18px;line-height:123.00000191000000882%;letter-spacing:0px;word-spacing:0px;-inkscape-font-specification:Sans;font-stretch:normal;font-variant:normal;text-anchor:start;text-align:start;writing-mode:lr"><flowRegion
         id="flowRegion3019"><rect
           id="rect3021"
           width="692.14288"
           height="245.71428"
           x="80.714287"
           y="415.93362" /></flowRegion><flowPara
         id="flowPara3023" /></flowRoot>    <flowRoot
       xml:space="preserve"
       id="flowRoot5236"
       style="font-size:18px;font-style:normal;font-variant:normal;font-weight:normal;font-stretch:normal;text-align:start;line-height:123.00000191%;letter-spacing:0px;word-spacing:0px;writing-mode:lr-tb;text-anchor:start;fill:#000000;fill-opacity:1;stroke:none;font-family:Caviar Dreams;-inkscape-font-specification:Caviar Dreams"
       transform="matrix(0.67830483,0,0,0.67830483,154.20037,133.98072)"><flowRegion
         id="flowRegion5238"><rect
           id="rect5240"
           width="152.30917"
           height="814.10199"
           x="339.41125"
           y="570.51941"
           style="font-size:18px;font-style:normal;font-variant:normal;font-weight:normal;font-stretch:normal;text-align:start;line-height:123.00000191%;writing-mode:lr-tb;text-anchor:start;font-family:Caviar Dreams;-inkscape-font-specification:Caviar Dreams" /></flowRegion><flowPara
         id="flowPara5242">Ramon Turro</flowPara><flowPara
         id="flowPara5280">Poble Nou</flowPara><flowPara
         id="flowPara5278">Barcelona</flowPara><flowPara
         id="flowPara5244" /><flowPara
         id="flowPara5400" /><flowPara
         id="flowPara5410">BCN</flowPara><flowPara
         id="flowPara5246">BCN</flowPara><flowPara
         id="flowPara5248">BCN</flowPara><flowPara
         id="flowPara5250">BCN</flowPara><flowPara
         id="flowPara5252">BCN</flowPara><flowPara
         id="flowPara5254">BCN</flowPara><flowPara
         id="flowPara5256">BCN</flowPara><flowPara
         id="flowPara5282">BCN</flowPara><flowPara
         id="flowPara5260">BCN</flowPara><flowPara
         id="flowPara5262">BCN</flowPara><flowPara
         id="flowPara5264">BCN</flowPara><flowPara
         id="flowPara5266">BCN</flowPara><flowPara
         id="flowPara5268">BCN</flowPara><flowPara
         id="flowPara5270">BCN</flowPara><flowPara
         id="flowPara5272">BCN</flowPara><flowPara
         id="flowPara5274">BCN</flowPara><flowPara
         id="flowPara5284">BCN</flowPara><flowPara
         id="flowPara5286">BCN</flowPara><flowPara
         id="flowPara5288">BCN</flowPara><flowPara
         id="flowPara5290">BCN</flowPara><flowPara
         id="flowPara5292">BCN</flowPara><flowPara
         id="flowPara5294">BCN</flowPara><flowPara
         id="flowPara5296">BCN</flowPara><flowPara
         id="flowPara5298">BCN</flowPara><flowPara
         id="flowPara5300">BCN</flowPara><flowPara
         id="flowPara5302">BCN</flowPara><flowPara
         id="flowPara5304">BCN</flowPara><flowPara
         id="flowPara5306">BCN</flowPara><flowPara
         id="flowPara5308">BCN</flowPara><flowPara
         id="flowPara5310">BCN</flowPara><flowPara
         id="flowPara5312">BCN</flowPara><flowPara
         id="flowPara5314" /><flowPara
         id="flowPara5316" /><flowPara
         id="flowPara5276" /></flowRoot>    <text
       xml:space="preserve"
       style="font-size:18px;font-style:normal;font-variant:normal;font-weight:normal;font-stretch:normal;text-align:start;line-height:123.00000191%;letter-spacing:0px;word-spacing:0px;writing-mode:lr-tb;text-anchor:start;fill:#000000;fill-opacity:1;stroke:none;font-family:Sans;-inkscape-font-specification:Sans"
       x="555.71429"
       y="800.93359"
       id="text5412"
       sodipodi:linespacing="123%"><tspan
         sodipodi:role="line"
         id="tspan5414" /></text>
  </g>
</svg>
