<?xml version="1.0" encoding="UTF-8" standalone="no"?>
<!-- Created with Inkscape (http://www.inkscape.org/) -->

<svg
   xmlns:dc="http://purl.org/dc/elements/1.1/"
   xmlns:cc="http://creativecommons.org/ns#"
   xmlns:rdf="http://www.w3.org/1999/02/22-rdf-syntax-ns#"
   xmlns:svg="http://www.w3.org/2000/svg"
   xmlns="http://www.w3.org/2000/svg"
   xmlns:xlink="http://www.w3.org/1999/xlink"
   xmlns:sodipodi="http://sodipodi.sourceforge.net/DTD/sodipodi-0.dtd"
   xmlns:inkscape="http://www.inkscape.org/namespaces/inkscape"
   width="744.09448819"
   height="1052.3622047"
   id="svg2"
   version="1.1"
   inkscape:version="0.48.3.1 r9886"
   sodipodi:docname="kino.svg">
  <defs
     id="defs4" />
  <sodipodi:namedview
     id="base"
     pagecolor="#ffffff"
     bordercolor="#666666"
     borderopacity="1.0"
     inkscape:pageopacity="0.0"
     inkscape:pageshadow="2"
     inkscape:zoom="1"
     inkscape:cx="52.213707"
     inkscape:cy="645.74769"
     inkscape:document-units="px"
     inkscape:current-layer="layer1"
     showgrid="false"
     inkscape:window-width="1920"
     inkscape:window-height="1012"
     inkscape:window-x="0"
     inkscape:window-y="34"
     inkscape:window-maximized="1" />
  <metadata
     id="metadata7">
    <rdf:RDF>
      <cc:Work
         rdf:about="">
        <dc:format>image/svg+xml</dc:format>
        <dc:type
           rdf:resource="http://purl.org/dc/dcmitype/StillImage" />
        <dc:title />
      </cc:Work>
    </rdf:RDF>
  </metadata>
  <g
     inkscape:label="paska"
     inkscape:groupmode="layer"
     id="layer1">
    <g
       style="font-size:40px;font-style:normal;font-weight:normal;line-height:125%;letter-spacing:0px;word-spacing:0px;fill:#000000;fill-opacity:1;stroke:none;font-family:Sans"
       id="flowRoot2985" />
    <g
       style="font-size:40px;font-style:normal;font-weight:normal;line-height:125%;letter-spacing:0px;word-spacing:0px;fill:#000000;fill-opacity:1;stroke:none;font-family:Sans"
       id="flowRoot2993" />
    <g
       style="font-size:40px;font-style:normal;font-weight:normal;line-height:125%;letter-spacing:0px;word-spacing:0px;fill:#000000;fill-opacity:1;stroke:none;font-family:Sans"
       id="text3022" />
    <flowRoot
       xml:space="preserve"
       id="flowRoot4098"
       style="font-size:40px;font-style:normal;font-variant:normal;font-weight:normal;font-stretch:normal;text-align:start;line-height:125%;letter-spacing:0px;word-spacing:0px;writing-mode:lr-tb;text-anchor:start;fill:#000000;fill-opacity:1;stroke:none;font-family:Sans;-inkscape-font-specification:Sans"><flowRegion
         id="flowRegion4100"><rect
           id="rect4102"
           width="470.73108"
           height="41.416256"
           x="17.67767"
           y="37.158875"
           style="font-size:40px;font-style:normal;font-variant:normal;font-weight:normal;font-stretch:normal;text-align:start;line-height:125%;writing-mode:lr-tb;text-anchor:start;font-family:Sans;-inkscape-font-specification:Sans" /></flowRegion><flowPara
         id="flowPara4106">aábcčdďeéfghchiíjklmnňoópqrřsštťuúůvwxyzž</flowPara></flowRoot>    <path
       style="fill:none;stroke:#b0b0b0;stroke-width:1px;stroke-linecap:butt;stroke-linejoin:miter;stroke-opacity:1"
       d="m 108.17606,151.36102 c -1.25416,-1.16386 0.18353,-2.98042 1.38422,-3.40841 2.59292,-0.92425 5.07323,1.31847 5.55633,3.76441 0.76183,3.85711 -2.46172,7.23384 -6.14459,7.70426 -5.09928,0.65133 -9.416918,-3.6076 -9.852178,-8.52478 -0.56086,-6.33608 4.753978,-11.61015 10.904958,-12.0001 7.57105,-0.47998 13.80887,5.90052 14.14803,13.28514 0.4044,8.80524 -7.04713,16.01089 -15.66533,16.29596 -10.039058,0.33206 -18.215048,-8.19379 -18.443878,-18.04552 -0.26183,-11.27268 9.34047,-20.42068 20.425698,-20.5918 12.50619,-0.19305 22.62737,10.48718 22.73973,22.80588 0.12531,13.73963 -11.63391,24.83484 -25.18607,24.88765 -14.973018,0.0583 -27.042898,-12.78065 -27.035578,-27.56625 0.008,-16.20639 13.92742,-29.25142 29.946438,-29.1835 17.43974,0.0739 31.46031,15.07419 31.33142,32.32662 -0.13949,18.67307 -16.22096,33.66949 -34.7068,33.47935 -19.906388,-0.20475 -35.878908,-17.36776 -35.627268,-37.08699 0.26977,-21.13971 18.51456,-38.08854 39.467168,-37.7752 22.37302,0.33459 40.29833,19.66137 39.92312,41.84736 -0.39923,23.60634 -20.80818,42.50827 -44.22754,42.07105 -24.839638,-0.46374 -44.718328,-21.955 -44.218968,-46.60773 0.52812,-26.07294 23.10182,-46.92849 48.987908,-46.36689 27.30625,0.5924 49.13874,24.24865 48.51482,51.36809 -0.6566,28.53955 -25.39548,51.34908 -53.74828,50.66274 -29.772848,-0.7207 -53.559478,-26.54231 -52.810668,-56.12846 0.78475,-31.00615 27.68915,-55.769942 58.508648,-54.958592 32.23945,0.84873 57.98046,28.835992 57.10652,60.888832 -0.91266,33.47276 -29.98284,60.19103 -63.26902,59.25444 -34.706048,-0.97653 -62.401628,-31.12968 -61.402358,-65.6492 1.04037,-35.93935 32.27652,-64.612282 68.029378,-63.550292 37.17265,1.10417 66.82296,33.423382 65.69821,70.409572 -1.16792,38.40595 -34.57023,69.03368 -72.78975,67.84614 -39.639248,-1.23166 -71.244418,-35.71708 -69.994058,-75.16994 1.29535,-40.87255 36.86394,-73.455192 77.550118,-72.141982 42.10585,1.35903 75.66599,38.010792 74.28991,79.930302 -1.42268,43.33915 -39.15765,77.87681 -82.31049,76.43784 -44.572448,-1.48631 -80.087638,-40.30451 -78.585758,-84.69068 1.54992,-45.80575 41.45137,-82.298492 87.070858,-80.733682 37.65356,1.29157 44.82161,9.912327 86.42929,51.520012 109.27783,102.24716 111.4082,17.77956 251.27453,-20.118084 104.06358,-21.80802 84.83823,294.700384 104.83163,297.694844 22.05117,-1.0611 -5.70516,-210.67858 42.97514,-223.72243 43.59864,-11.68222 86.47439,2.18977 112.03246,36.81524 25.55807,34.62547 -12.26832,193.29318 -26.43585,396.95849 -13.44856,193.32973 19.45745,424.56107 21.06599,423.04537"
       id="path4148"
       inkscape:connector-curvature="0"
       sodipodi:nodetypes="csssssssssssssssssssssssssssssssssssssccsczss" />
    <text
       xml:space="preserve"
       style="font-size:12px;font-style:normal;font-variant:normal;font-weight:normal;font-stretch:normal;text-align:start;line-height:125%;letter-spacing:0px;word-spacing:0px;writing-mode:lr-tb;text-anchor:start;fill:#000000;fill-opacity:1;stroke:none;font-family:Sans;-inkscape-font-specification:Sans"
       id="text4116"
       sodipodi:linespacing="125%"><textPath
         xlink:href="#path4148"
         id="textPath4195"><tspan
   id="tspan4193">áb<tspan
   style="fill:#d40000"
   id="tspan4207">č</tspan>ďéfghchíjklmňópqřšťůvwxýžábčďéfghchíjklmňópqřšťůvwxýžábčďéfghchíjklmňópqřšťůvwxýžábčďéfghchíjklmňópqřšťůvwxýžáb<tspan
   style="fill:#d40000"
   id="tspan4201">č</tspan>ďéfghchíjklmňópqřšťůvwxýžábčďéfghchíjklmňópqřšťůvwxýžábčď<tspan
   style="fill:#000080"
   id="tspan4205">é</tspan>fghchíjklmňópqřšťůvwxýžábčďéfghchíjklmňópqřšťůvwxýžábčďéfghchíjklmňópqřšťůvwxýžábčďéfghchíjklmňópqřšťůvwxýžábčďéfghchíjklmňópqřšťůvwxýžábčďéfghchíjklmňópqřšťůvwxýžábčďéfghchíjklmňópqřšťůvwxýžábčďéfghchíjklmňópqřšťůvwxýžábčďéfghchíjklmňópqřšťůvwxýžábčďéfghchíjklmňópqřšťůvwxýžábčďéfghchíjklmňópqřšťůvwxýžábčďéfghchíjklmňópqřšťůvwxýžábčďéfghchíjklmňópqřšťůvwxýžábčďéfghchíjklmňópqřšťůvwxýžábčďéfghchíjklmňópqřšťůvwxýžábčďéfghchíjklmňópqřšťůvwxýžábčďéfghchíjklmňópqřšťůvwxýžábčďéfghchíjklmňópqřšťůvwxýžábčďéfghchíjklmňópqřšťůvwxýžábčďéfghchíjklmňópqřšťůvwxýžábčďéfghchíjklmňópqřšťůvwxýž</tspan></textPath></text>
  </g>
  <g
     inkscape:groupmode="layer"
     id="layer2"
     inkscape:label="Layer" />
</svg>
