<?xml version="1.0" encoding="UTF-8" standalone="no"?>
<!-- Created with Inkscape (http://www.inkscape.org/) -->

<svg
   xmlns:dc="http://purl.org/dc/elements/1.1/"
   xmlns:cc="http://creativecommons.org/ns#"
   xmlns:rdf="http://www.w3.org/1999/02/22-rdf-syntax-ns#"
   xmlns:svg="http://www.w3.org/2000/svg"
   xmlns="http://www.w3.org/2000/svg"
   xmlns:xlink="http://www.w3.org/1999/xlink"
   xmlns:sodipodi="http://sodipodi.sourceforge.net/DTD/sodipodi-0.dtd"
   xmlns:inkscape="http://www.inkscape.org/namespaces/inkscape"
   width="744.09448819"
   height="1052.3622047"
   id="svg2"
   version="1.1"
   inkscape:version="0.48.3.1 r9886"
   sodipodi:docname="rats.svg">
  <defs
     id="defs4" />
  <sodipodi:namedview
     id="base"
     pagecolor="#ffffff"
     bordercolor="#666666"
     borderopacity="1.0"
     inkscape:pageopacity="0.0"
     inkscape:pageshadow="2"
     inkscape:zoom="0.70710678"
     inkscape:cx="326.67501"
     inkscape:cy="549.26908"
     inkscape:document-units="px"
     inkscape:current-layer="g4123"
     showgrid="false"
     inkscape:window-width="1920"
     inkscape:window-height="1012"
     inkscape:window-x="0"
     inkscape:window-y="34"
     inkscape:window-maximized="1" />
  <metadata
     id="metadata7">
    <rdf:RDF>
      <cc:Work
         rdf:about="">
        <dc:format>image/svg+xml</dc:format>
        <dc:type
           rdf:resource="http://purl.org/dc/dcmitype/StillImage" />
        <dc:title></dc:title>
      </cc:Work>
    </rdf:RDF>
  </metadata>
  <g
     inkscape:groupmode="layer"
     id="layer2"
     inkscape:label="foto"
     style="display:none">
    <image
       y="330.64789"
       x="245.00002"
       id="image2993"
       xlink:href="file:///home/jakub/Desktop/ROD-03-AC0001-01P.JPG"
       height="392"
       width="510" />
  </g>
  <g
     inkscape:label="obrys"
     inkscape:groupmode="layer"
     id="layer1">
    <g
       id="g3014"
       transform="matrix(-1,0,0,1,752.11097,-214.29289)">
      <path
         sodipodi:nodetypes="cccccccccccccccccccccccccccccc"
         inkscape:connector-curvature="0"
         id="path2996"
         d="m 451.5,370.36219 32,21.5 14,16.99999 10.5,-1 7.5,9 -0.0625,6.0625 -6.5,4.9375 -0.1875,25 3.5,10 2.25,10 -0.25,10 -2.25,5.5 3,35.5 12.75,57 7,23.25 5,23.75 1.5,7.75 12.25,16.75 c 31,16 57,25 57,25 l 27,9.625 21.5,4 32.625,2.375 16.25,-0.125 8.375,-1.875 4.75,-2.75 1.66313,1.71133 -7.15946,8.48528 -9.01561,3.00521 -40.39347,0 -46.96959,-8.45182"
         style="fill:none;stroke:#000000;stroke-width:1px;stroke-linecap:butt;stroke-linejoin:miter;stroke-opacity:1" />
      <path
         inkscape:connector-curvature="0"
         id="path2998"
         d="m 619.42554,693.32872 -43.31029,-14.84925 -28.1075,-14.93763 -12.81631,-3.97747 -11.66726,1.76776 -4.06586,5.3033 -1.41422,5.30331 -0.88388,7.42462 1.94454,7.07106 -0.44194,3.27037 -5.3033,5.74525 -9.60952,8.78714 -7.375,4.25 -3.875,-0.875 -14.375,1 -5.125,-5 1.25,-4.25 9.125,-1.125 12.875,-1 4.25,-2.125 3.125,-4.375 0.25,-7 -2.375,-0.125 -7.375,4.125 -1.75,1 -20.875,0 -0.625,-2.125 -13.5,-0.125 -0.75,-7.75 17.875,0.5 1.5,-1.625 4.25,-0.125 1.25,0.875 13.375,0.125 0.375,-5.5 -18.625,-23.875 -5.25,-12.875 -1.375,-19.125 -11.125,-21.25 -3.875,-17.875 0.625,-42.75 -1.875,-9.75 -1.125,-16.75 -16.625,-9.875 -6.125,0.125 -1,-1.375 -2.75,-0.125 -1.25,2.25 -9.125,0.75 0,-2.875 4.625,-7.75 -4.375,-0.375 -1.25,-1.75 3.25,-5.875 5.625,-5 3.125,-0.375 4.375,2.5 18.625,0.75 5.875,-6.125 5,-13.25 -0.125,-11.875 -0.125,-9.625 -9.375,-18.125 -7.375,-14.625 -0.75,-7.75 2,-0.625 -4.5,-6.25 -0.125,-7.375 3.25,-5.25 0,-2.75 4.75,-4.875 3.5,-0.75"
         style="fill:none;stroke:#000000;stroke-width:1px;stroke-linecap:butt;stroke-linejoin:miter;stroke-opacity:1" />
    </g>
    <text
       xml:space="preserve"
       style="font-size:124.49560547px;font-style:normal;font-variant:normal;font-weight:normal;font-stretch:normal;text-align:start;line-height:123.00000191%;letter-spacing:0px;word-spacing:0px;writing-mode:lr-tb;text-anchor:start;fill:#797979;fill-opacity:1;stroke:none;font-family:Caviar Dreams;-inkscape-font-specification:Caviar Dreams"
       x="335.0499"
       y="290.76865"
       id="text4013"
       sodipodi:linespacing="123%"><tspan
         sodipodi:role="line"
         id="tspan4015"
         x="335.0499"
         y="290.76865">R</tspan></text>
    <text
       xml:space="preserve"
       style="font-size:126.5995636px;font-style:normal;font-variant:normal;font-weight:normal;font-stretch:normal;text-align:start;line-height:123.00000191%;letter-spacing:0px;word-spacing:0px;writing-mode:lr-tb;text-anchor:start;fill:#797979;fill-opacity:1;stroke:none;font-family:Caviar Dreams;-inkscape-font-specification:Caviar Dreams"
       x="404.29773"
       y="288.54819"
       id="text4017"
       sodipodi:linespacing="123%"><tspan
         sodipodi:role="line"
         id="tspan4019"
         x="404.29773"
         y="288.54819">A</tspan></text>
    <text
       xml:space="preserve"
       style="font-size:149.55482483px;font-style:normal;font-variant:normal;font-weight:normal;font-stretch:normal;text-align:start;line-height:123.00000191%;letter-spacing:0px;word-spacing:0px;writing-mode:lr-tb;text-anchor:start;fill:#797979;fill-opacity:1;stroke:none;font-family:Caviar Dreams;-inkscape-font-specification:Caviar Dreams"
       x="284.34564"
       y="525.10028"
       id="text4029"
       sodipodi:linespacing="123%"
       transform="scale(1.2560769,0.79612959)"><tspan
         sodipodi:role="line"
         id="tspan4031"
         x="284.34564"
         y="525.10028">T</tspan></text>
    <text
       xml:space="preserve"
       style="font-size:72px;font-style:normal;font-variant:normal;font-weight:normal;font-stretch:normal;text-align:start;line-height:123.00000191%;letter-spacing:0px;word-spacing:0px;writing-mode:lr-tb;text-anchor:start;fill:#797979;fill-opacity:1;stroke:none;font-family:Caviar Dreams;-inkscape-font-specification:Caviar Dreams"
       x="419.38538"
       y="403.19861"
       id="text4033"
       sodipodi:linespacing="123%"><tspan
         sodipodi:role="line"
         id="tspan4035"
         x="419.38538"
         y="403.19861">E</tspan></text>
    <text
       xml:space="preserve"
       style="font-size:72px;font-style:normal;font-variant:normal;font-weight:normal;font-stretch:normal;text-align:start;line-height:123.00000191%;letter-spacing:0px;word-spacing:0px;writing-mode:lr-tb;text-anchor:start;fill:#000000;fill-opacity:1;stroke:none;font-family:Caviar Dreams;-inkscape-font-specification:Caviar Dreams"
       x="466.05444"
       y="425.1189"
       id="text4037"
       sodipodi:linespacing="123%"><tspan
         sodipodi:role="line"
         id="tspan4039"
         x="466.05444"
         y="425.1189">R</tspan></text>
    <text
       xml:space="preserve"
       style="font-size:72px;font-style:normal;font-variant:normal;font-weight:normal;font-stretch:normal;text-align:start;line-height:123.00000191%;letter-spacing:0px;word-spacing:0px;writing-mode:lr-tb;text-anchor:start;fill:#000000;fill-opacity:1;stroke:none;font-family:Caviar Dreams;-inkscape-font-specification:Caviar Dreams"
       x="467.46866"
       y="362.18646"
       id="text4041"
       sodipodi:linespacing="123%"><tspan
         sodipodi:role="line"
         id="tspan4043"
         x="467.46866"
         y="362.18646">R</tspan></text>
    <text
       xml:space="preserve"
       style="font-size:72px;font-style:normal;font-variant:normal;font-weight:normal;font-stretch:normal;text-align:start;line-height:123.00000191%;letter-spacing:0px;word-spacing:0px;writing-mode:lr-tb;text-anchor:start;fill:#000000;fill-opacity:1;stroke:none;font-family:Caviar Dreams;-inkscape-font-specification:Caviar Dreams"
       x="512.01636"
       y="393.29913"
       id="text4045"
       sodipodi:linespacing="123%"><tspan
         sodipodi:role="line"
         id="tspan4047"
         x="512.01636"
         y="393.29913">A</tspan></text>
    <text
       xml:space="preserve"
       style="font-size:72px;font-style:normal;font-variant:normal;font-weight:normal;font-stretch:normal;text-align:start;line-height:123.00000191%;letter-spacing:0px;word-spacing:0px;writing-mode:lr-tb;text-anchor:start;fill:#000000;fill-opacity:1;stroke:none;font-family:Caviar Dreams;-inkscape-font-specification:Caviar Dreams"
       x="553.73566"
       y="393.29913"
       id="text4049"
       sodipodi:linespacing="123%"><tspan
         sodipodi:role="line"
         id="tspan4051"
         x="553.73566"
         y="393.29913">C</tspan></text>
    <text
       xml:space="preserve"
       style="font-size:94.62741852px;font-style:normal;font-variant:normal;font-weight:normal;font-stretch:normal;text-align:start;line-height:123.00000191%;letter-spacing:0px;word-spacing:0px;writing-mode:lr-tb;text-anchor:start;fill:#000000;fill-opacity:1;stroke:none;font-family:Caviar Dreams;-inkscape-font-specification:Caviar Dreams"
       x="609.88434"
       y="401.78442"
       id="text4053"
       sodipodi:linespacing="123%"><tspan
         sodipodi:role="line"
         id="tspan4055"
         x="609.88434"
         y="401.78442">E</tspan></text>
    <text
       xml:space="preserve"
       style="font-size:137.4233551px;font-style:normal;font-variant:normal;font-weight:normal;font-stretch:normal;text-align:start;line-height:123.00000191%;letter-spacing:0px;word-spacing:0px;writing-mode:lr-tb;text-anchor:start;fill:#797979;fill-opacity:1;stroke:none;font-family:Caviar Dreams;-inkscape-font-specification:Caviar Dreams"
       x="336.23428"
       y="549.6698"
       id="text4057"
       sodipodi:linespacing="123%"><tspan
         sodipodi:role="line"
         id="tspan4059"
         x="336.23428"
         y="549.6698">C</tspan></text>
    <text
       xml:space="preserve"
       style="font-size:72px;font-style:normal;font-variant:normal;font-weight:normal;font-stretch:normal;text-align:start;line-height:123.00000191%;letter-spacing:0px;word-spacing:0px;writing-mode:lr-tb;text-anchor:start;fill:#797979;fill-opacity:1;stroke:none;font-family:Caviar Dreams;-inkscape-font-specification:Caviar Dreams"
       x="454.74072"
       y="496.53674"
       id="text4061"
       sodipodi:linespacing="123%"><tspan
         sodipodi:role="line"
         id="tspan4063"
         x="454.74072"
         y="496.53674">I</tspan></text>
    <text
       xml:space="preserve"
       style="font-size:72px;font-style:normal;font-variant:normal;font-weight:normal;font-stretch:normal;text-align:start;line-height:123.00000191%;letter-spacing:0px;word-spacing:0px;writing-mode:lr-tb;text-anchor:start;fill:#000000;fill-opacity:1;stroke:none;font-family:Caviar Dreams;-inkscape-font-specification:Caviar Dreams"
       x="477.3681"
       y="524.82098"
       id="text4065"
       sodipodi:linespacing="123%"><tspan
         sodipodi:role="line"
         id="tspan4067"
         x="477.3681"
         y="524.82098">N</tspan></text>
    <text
       xml:space="preserve"
       style="font-size:72px;font-style:normal;font-variant:normal;font-weight:normal;font-stretch:normal;text-align:start;line-height:123.00000191%;letter-spacing:0px;word-spacing:0px;writing-mode:lr-tb;text-anchor:start;fill:#000000;fill-opacity:1;stroke:none;font-family:Caviar Dreams;-inkscape-font-specification:Caviar Dreams"
       x="525.45135"
       y="543.20575"
       id="text4069"
       sodipodi:linespacing="123%"><tspan
         sodipodi:role="line"
         id="tspan4071"
         x="525.45135"
         y="543.20575">E</tspan></text>
    <text
       xml:space="preserve"
       style="font-size:72px;font-style:normal;font-variant:normal;font-weight:normal;font-stretch:normal;text-align:start;line-height:123.00000191%;letter-spacing:0px;word-spacing:0px;writing-mode:lr-tb;text-anchor:start;fill:#000000;fill-opacity:1;stroke:none;font-family:Caviar Dreams;-inkscape-font-specification:Caviar Dreams"
       x="106.77312"
       y="775.17633"
       id="text4073"
       sodipodi:linespacing="123%"><tspan
         sodipodi:role="line"
         id="tspan4075"></tspan></text>
    <text
       xml:space="preserve"
       style="font-size:57.64496613px;font-style:normal;font-variant:normal;font-weight:normal;font-stretch:normal;text-align:start;line-height:123.00000191%;letter-spacing:0px;word-spacing:0px;writing-mode:lr-tb;text-anchor:start;fill:#000000;fill-opacity:1;stroke:none;font-family:Caviar Dreams;-inkscape-font-specification:Caviar Dreams"
       x="547.62292"
       y="515.26227"
       id="text4077"
       sodipodi:linespacing="123%"
       transform="scale(1.0347651,0.9664029)"><tspan
         sodipodi:role="line"
         id="tspan4079"
         x="547.62292"
         y="515.26227">M</tspan></text>
    <text
       xml:space="preserve"
       style="font-size:72px;font-style:normal;font-variant:normal;font-weight:normal;font-stretch:normal;text-align:start;line-height:123.00000191%;letter-spacing:0px;word-spacing:0px;writing-mode:lr-tb;text-anchor:start;fill:#000000;fill-opacity:1;stroke:none;font-family:Caviar Dreams;-inkscape-font-specification:Caviar Dreams"
       x="612.42548"
       y="540.37732"
       id="text4081"
       sodipodi:linespacing="123%"><tspan
         sodipodi:role="line"
         id="tspan4083"
         x="612.42548"
         y="540.37732">A</tspan></text>
    <text
       xml:space="preserve"
       style="font-size:72px;font-style:normal;font-variant:normal;font-weight:normal;font-stretch:normal;text-align:start;line-height:123.00000191%;letter-spacing:0px;word-spacing:0px;writing-mode:lr-tb;text-anchor:start;fill:#000000;fill-opacity:1;stroke:none;font-family:Caviar Dreams;-inkscape-font-specification:Caviar Dreams"
       x="492.92453"
       y="268.1412"
       id="text4085"
       sodipodi:linespacing="123%"><tspan
         sodipodi:role="line"
         id="tspan4087"
         x="492.92453"
         y="268.1412">N</tspan></text>
    <text
       xml:space="preserve"
       style="font-size:72px;font-style:normal;font-variant:normal;font-weight:normal;font-stretch:normal;text-align:start;line-height:123.00000191%;letter-spacing:0px;word-spacing:0px;writing-mode:lr-tb;text-anchor:start;fill:#000000;fill-opacity:1;stroke:none;font-family:Caviar Dreams;-inkscape-font-specification:Caviar Dreams"
       x="454.52332"
       y="380.27496"
       id="text4089"
       sodipodi:linespacing="123%"
       transform="matrix(0.95820788,-0.28607282,0.28607282,0.95820788,0,0)"><tspan
         sodipodi:role="line"
         id="tspan4091"
         x="454.52332"
         y="380.27496">D</tspan></text>
    <text
       xml:space="preserve"
       style="font-size:72px;font-style:normal;font-variant:normal;font-weight:normal;font-stretch:normal;text-align:start;line-height:123.00000191%;letter-spacing:0px;word-spacing:0px;writing-mode:lr-tb;text-anchor:start;fill:#000000;fill-opacity:1;stroke:none;font-family:Caviar Dreams;-inkscape-font-specification:Caviar Dreams"
       x="545.95752"
       y="288.64734"
       id="text4093"
       sodipodi:linespacing="123%"><tspan
         sodipodi:role="line"
         id="tspan4095"
         x="545.95752"
         y="288.64734">O</tspan></text>
    <text
       xml:space="preserve"
       style="font-size:72px;font-style:normal;font-variant:normal;font-weight:normal;font-stretch:normal;text-align:start;line-height:123.00000191%;letter-spacing:0px;word-spacing:0px;writing-mode:lr-tb;text-anchor:start;fill:#000000;fill-opacity:1;stroke:none;font-family:Caviar Dreams;-inkscape-font-specification:Caviar Dreams"
       x="610.30414"
       y="275.91931"
       id="text4097"
       sodipodi:linespacing="123%"><tspan
         sodipodi:role="line"
         id="tspan4099"
         x="610.30414"
         y="275.91931">M</tspan></text>
    <g
       transform="matrix(-1,0,0,1,752.11097,-214.29289)"
       id="g4101">
      <path
         style="fill:none;stroke:#000000;stroke-width:1px;stroke-linecap:butt;stroke-linejoin:miter;stroke-opacity:1"
         d="m 451.5,370.36219 32,21.5 14,16.99999 10.5,-1 7.5,9 -0.0625,6.0625 -6.5,4.9375 -0.1875,25 3.5,10 2.25,10 -0.25,10 -2.25,5.5 3,35.5 12.75,57 7,23.25 5,23.75 1.5,7.75 12.25,16.75 c 31,16 57,25 57,25 l 27,9.625 21.5,4 32.625,2.375 16.25,-0.125 8.375,-1.875 4.75,-2.75 1.66313,1.71133 -7.15946,8.48528 -9.01561,3.00521 -40.39347,0 -46.96959,-8.45182"
         id="path4103"
         inkscape:connector-curvature="0"
         sodipodi:nodetypes="cccccccccccccccccccccccccccccc" />
      <path
         style="fill:none;stroke:#000000;stroke-width:1px;stroke-linecap:butt;stroke-linejoin:miter;stroke-opacity:1"
         d="m 619.42554,693.32872 -43.31029,-14.84925 -28.1075,-14.93763 -12.81631,-3.97747 -11.66726,1.76776 -4.06586,5.3033 -1.41422,5.30331 -0.88388,7.42462 1.94454,7.07106 -0.44194,3.27037 -5.3033,5.74525 -9.60952,8.78714 -7.375,4.25 -3.875,-0.875 -14.375,1 -5.125,-5 1.25,-4.25 9.125,-1.125 12.875,-1 4.25,-2.125 3.125,-4.375 0.25,-7 -2.375,-0.125 -7.375,4.125 -1.75,1 -20.875,0 -0.625,-2.125 -13.5,-0.125 -0.75,-7.75 17.875,0.5 1.5,-1.625 4.25,-0.125 1.25,0.875 13.375,0.125 0.375,-5.5 -18.625,-23.875 -5.25,-12.875 -1.375,-19.125 -11.125,-21.25 -3.875,-17.875 0.625,-42.75 -1.875,-9.75 -1.125,-16.75 -16.625,-9.875 -6.125,0.125 -1,-1.375 -2.75,-0.125 -1.25,2.25 -9.125,0.75 0,-2.875 4.625,-7.75 -4.375,-0.375 -1.25,-1.75 3.25,-5.875 5.625,-5 3.125,-0.375 4.375,2.5 18.625,0.75 5.875,-6.125 5,-13.25 -0.125,-11.875 -0.125,-9.625 -9.375,-18.125 -7.375,-14.625 -0.75,-7.75 2,-0.625 -4.5,-6.25 -0.125,-7.375 3.25,-5.25 0,-2.75 4.75,-4.875 3.5,-0.75"
         id="path4105"
         inkscape:connector-curvature="0" />
    </g>
    <g
       id="g4113"
       transform="matrix(-1,0,0,1,829.11097,248.7071)">
      <g
         transform="translate(29,7)"
         id="g4123">
        <g
           inkscape:transform-center-y="-132.81891"
           inkscape:transform-center-x="47.819311"
           id="g4145"
           transform="matrix(0.98331127,-0.18193112,0.18193112,0.98331127,-115.61358,102.87676)"
           style="stroke:#e6e6e6">
          <g
             id="g4147"
             style="stroke:#e6e6e6">
            <path
               style="fill:none;stroke:#e6e6e6;stroke-width:1px;stroke-linecap:butt;stroke-linejoin:miter;stroke-opacity:1"
               d="m 451.5,370.36219 32,21.5 14,16.99999 10.5,-1 7.5,9 -0.0625,6.0625 -6.5,4.9375 -0.1875,25 3.5,10 2.25,10 -0.25,10 -2.25,5.5 3,35.5 12.75,57 7,23.25 5,23.75 1.5,7.75 12.25,16.75 c 31,16 57,25 57,25 l 27,9.625 21.5,4 32.625,2.375 16.25,-0.125 8.375,-1.875 4.75,-2.75 1.66313,1.71133 -7.15946,8.48528 -9.01561,3.00521 -40.39347,0 -46.96959,-8.45182"
               id="path4149"
               inkscape:connector-curvature="0"
               sodipodi:nodetypes="cccccccccccccccccccccccccccccc" />
            <path
               style="fill:none;stroke:#e6e6e6;stroke-width:1px;stroke-linecap:butt;stroke-linejoin:miter;stroke-opacity:1"
               d="m 619.42554,693.32872 -43.31029,-14.84925 -28.1075,-14.93763 -12.81631,-3.97747 -11.66726,1.76776 -4.06586,5.3033 -1.41422,5.30331 -0.88388,7.42462 1.94454,7.07106 -0.44194,3.27037 -5.3033,5.74525 -9.60952,8.78714 -7.375,4.25 -3.875,-0.875 -14.375,1 -5.125,-5 1.25,-4.25 9.125,-1.125 12.875,-1 4.25,-2.125 3.125,-4.375 0.25,-7 -2.375,-0.125 -7.375,4.125 -1.75,1 -20.875,0 -0.625,-2.125 -13.5,-0.125 -0.75,-7.75 17.875,0.5 1.5,-1.625 4.25,-0.125 1.25,0.875 13.375,0.125 0.375,-5.5 -18.625,-23.875 -5.25,-12.875 -1.375,-19.125 -11.125,-21.25 -3.875,-17.875 0.625,-42.75 -1.875,-9.75 -1.125,-16.75 -16.625,-9.875 -6.125,0.125 -1,-1.375 -2.75,-0.125 -1.25,2.25 -9.125,0.75 0,-2.875 4.625,-7.75 -4.375,-0.375 -1.25,-1.75 3.25,-5.875 5.625,-5 3.125,-0.375 4.375,2.5 18.625,0.75 5.875,-6.125 5,-13.25 -0.125,-11.875 -0.125,-9.625 -9.375,-18.125 -7.375,-14.625 -0.75,-7.75 2,-0.625 -4.5,-6.25 -0.125,-7.375 3.25,-5.25 0,-2.75 4.75,-4.875 3.5,-0.75"
               id="path4151"
               inkscape:connector-curvature="0" />
          </g>
          <path
             sodipodi:nodetypes="cccccccccccccccccccccccccccccc"
             inkscape:connector-curvature="0"
             id="path4153"
             d="m 451.5,370.36219 32,21.5 14,16.99999 10.5,-1 7.5,9 -0.0625,6.0625 -6.5,4.9375 -0.1875,25 3.5,10 2.25,10 -0.25,10 -2.25,5.5 3,35.5 12.75,57 7,23.25 5,23.75 1.5,7.75 12.25,16.75 c 31,16 57,25 57,25 l 27,9.625 21.5,4 32.625,2.375 16.25,-0.125 8.375,-1.875 4.75,-2.75 1.66313,1.71133 -7.15946,8.48528 -9.01561,3.00521 -40.39347,0 -46.96959,-8.45182"
             style="fill:none;stroke:#e6e6e6;stroke-width:1px;stroke-linecap:butt;stroke-linejoin:miter;stroke-opacity:1" />
          <path
             inkscape:connector-curvature="0"
             id="path4155"
             d="m 619.42554,693.32872 -43.31029,-14.84925 -28.1075,-14.93763 -12.81631,-3.97747 -11.66726,1.76776 -4.06586,5.3033 -1.41422,5.30331 -0.88388,7.42462 1.94454,7.07106 -0.44194,3.27037 -5.3033,5.74525 -9.60952,8.78714 -7.375,4.25 -3.875,-0.875 -14.375,1 -5.125,-5 1.25,-4.25 9.125,-1.125 12.875,-1 4.25,-2.125 3.125,-4.375 0.25,-7 -2.375,-0.125 -7.375,4.125 -1.75,1 -20.875,0 -0.625,-2.125 -13.5,-0.125 -0.75,-7.75 17.875,0.5 1.5,-1.625 4.25,-0.125 1.25,0.875 13.375,0.125 0.375,-5.5 -18.625,-23.875 -5.25,-12.875 -1.375,-19.125 -11.125,-21.25 -3.875,-17.875 0.625,-42.75 -1.875,-9.75 -1.125,-16.75 -16.625,-9.875 -6.125,0.125 -1,-1.375 -2.75,-0.125 -1.25,2.25 -9.125,0.75 0,-2.875 4.625,-7.75 -4.375,-0.375 -1.25,-1.75 3.25,-5.875 5.625,-5 3.125,-0.375 4.375,2.5 18.625,0.75 5.875,-6.125 5,-13.25 -0.125,-11.875 -0.125,-9.625 -9.375,-18.125 -7.375,-14.625 -0.75,-7.75 2,-0.625 -4.5,-6.25 -0.125,-7.375 3.25,-5.25 0,-2.75 4.75,-4.875 3.5,-0.75"
             style="fill:none;stroke:#e6e6e6;stroke-width:1px;stroke-linecap:butt;stroke-linejoin:miter;stroke-opacity:1" />
        </g>
        <g
           style="stroke:#e6e6e6"
           transform="matrix(0.9186957,-0.39496607,0.39496607,0.9186957,-228.32342,254.06475)"
           id="g4229"
           inkscape:transform-center-x="15.008429"
           inkscape:transform-center-y="-115.5115">
          <g
             style="stroke:#e6e6e6"
             id="g4231">
            <path
               sodipodi:nodetypes="cccccccccccccccccccccccccccccc"
               inkscape:connector-curvature="0"
               id="path4233"
               d="m 451.5,370.36219 32,21.5 14,16.99999 10.5,-1 7.5,9 -0.0625,6.0625 -6.5,4.9375 -0.1875,25 3.5,10 2.25,10 -0.25,10 -2.25,5.5 3,35.5 12.75,57 7,23.25 5,23.75 1.5,7.75 12.25,16.75 c 31,16 57,25 57,25 l 27,9.625 21.5,4 32.625,2.375 16.25,-0.125 8.375,-1.875 4.75,-2.75 1.66313,1.71133 -7.15946,8.48528 -9.01561,3.00521 -40.39347,0 -46.96959,-8.45182"
               style="fill:none;stroke:#e6e6e6;stroke-width:1px;stroke-linecap:butt;stroke-linejoin:miter;stroke-opacity:1" />
            <path
               inkscape:connector-curvature="0"
               id="path4235"
               d="m 619.42554,693.32872 -43.31029,-14.84925 -28.1075,-14.93763 -12.81631,-3.97747 -11.66726,1.76776 -4.06586,5.3033 -1.41422,5.30331 -0.88388,7.42462 1.94454,7.07106 -0.44194,3.27037 -5.3033,5.74525 -9.60952,8.78714 -7.375,4.25 -3.875,-0.875 -14.375,1 -5.125,-5 1.25,-4.25 9.125,-1.125 12.875,-1 4.25,-2.125 3.125,-4.375 0.25,-7 -2.375,-0.125 -7.375,4.125 -1.75,1 -20.875,0 -0.625,-2.125 -13.5,-0.125 -0.75,-7.75 17.875,0.5 1.5,-1.625 4.25,-0.125 1.25,0.875 13.375,0.125 0.375,-5.5 -18.625,-23.875 -5.25,-12.875 -1.375,-19.125 -11.125,-21.25 -3.875,-17.875 0.625,-42.75 -1.875,-9.75 -1.125,-16.75 -16.625,-9.875 -6.125,0.125 -1,-1.375 -2.75,-0.125 -1.25,2.25 -9.125,0.75 0,-2.875 4.625,-7.75 -4.375,-0.375 -1.25,-1.75 3.25,-5.875 5.625,-5 3.125,-0.375 4.375,2.5 18.625,0.75 5.875,-6.125 5,-13.25 -0.125,-11.875 -0.125,-9.625 -9.375,-18.125 -7.375,-14.625 -0.75,-7.75 2,-0.625 -4.5,-6.25 -0.125,-7.375 3.25,-5.25 0,-2.75 4.75,-4.875 3.5,-0.75"
               style="fill:none;stroke:#e6e6e6;stroke-width:1px;stroke-linecap:butt;stroke-linejoin:miter;stroke-opacity:1" />
          </g>
          <path
             style="fill:none;stroke:#e6e6e6;stroke-width:1px;stroke-linecap:butt;stroke-linejoin:miter;stroke-opacity:1"
             d="m 451.5,370.36219 32,21.5 14,16.99999 10.5,-1 7.5,9 -0.0625,6.0625 -6.5,4.9375 -0.1875,25 3.5,10 2.25,10 -0.25,10 -2.25,5.5 3,35.5 12.75,57 7,23.25 5,23.75 1.5,7.75 12.25,16.75 c 31,16 57,25 57,25 l 27,9.625 21.5,4 32.625,2.375 16.25,-0.125 8.375,-1.875 4.75,-2.75 1.66313,1.71133 -7.15946,8.48528 -9.01561,3.00521 -40.39347,0 -46.96959,-8.45182"
             id="path4237"
             inkscape:connector-curvature="0"
             sodipodi:nodetypes="cccccccccccccccccccccccccccccc" />
          <path
             style="fill:none;stroke:#e6e6e6;stroke-width:1px;stroke-linecap:butt;stroke-linejoin:miter;stroke-opacity:1"
             d="m 619.42554,693.32872 -43.31029,-14.84925 -28.1075,-14.93763 -12.81631,-3.97747 -11.66726,1.76776 -4.06586,5.3033 -1.41422,5.30331 -0.88388,7.42462 1.94454,7.07106 -0.44194,3.27037 -5.3033,5.74525 -9.60952,8.78714 -7.375,4.25 -3.875,-0.875 -14.375,1 -5.125,-5 1.25,-4.25 9.125,-1.125 12.875,-1 4.25,-2.125 3.125,-4.375 0.25,-7 -2.375,-0.125 -7.375,4.125 -1.75,1 -20.875,0 -0.625,-2.125 -13.5,-0.125 -0.75,-7.75 17.875,0.5 1.5,-1.625 4.25,-0.125 1.25,0.875 13.375,0.125 0.375,-5.5 -18.625,-23.875 -5.25,-12.875 -1.375,-19.125 -11.125,-21.25 -3.875,-17.875 0.625,-42.75 -1.875,-9.75 -1.125,-16.75 -16.625,-9.875 -6.125,0.125 -1,-1.375 -2.75,-0.125 -1.25,2.25 -9.125,0.75 0,-2.875 4.625,-7.75 -4.375,-0.375 -1.25,-1.75 3.25,-5.875 5.625,-5 3.125,-0.375 4.375,2.5 18.625,0.75 5.875,-6.125 5,-13.25 -0.125,-11.875 -0.125,-9.625 -9.375,-18.125 -7.375,-14.625 -0.75,-7.75 2,-0.625 -4.5,-6.25 -0.125,-7.375 3.25,-5.25 0,-2.75 4.75,-4.875 3.5,-0.75"
             id="path4239"
             inkscape:connector-curvature="0" />
        </g>
        <g
           inkscape:transform-center-y="-89.010712"
           inkscape:transform-center-x="-32.37446"
           id="g4241"
           transform="matrix(0.7723286,-0.6352232,0.6352232,0.7723286,-318.47174,474.66713)"
           style="stroke:#ececec">
          <g
             id="g4243"
             style="stroke:#ececec">
            <path
               style="fill:none;stroke:#ececec;stroke-width:1px;stroke-linecap:butt;stroke-linejoin:miter;stroke-opacity:1"
               d="m 451.5,370.36219 32,21.5 14,16.99999 10.5,-1 7.5,9 -0.0625,6.0625 -6.5,4.9375 -0.1875,25 3.5,10 2.25,10 -0.25,10 -2.25,5.5 3,35.5 12.75,57 7,23.25 5,23.75 1.5,7.75 12.25,16.75 c 31,16 57,25 57,25 l 27,9.625 21.5,4 32.625,2.375 16.25,-0.125 8.375,-1.875 4.75,-2.75 1.66313,1.71133 -7.15946,8.48528 -9.01561,3.00521 -40.39347,0 -46.96959,-8.45182"
               id="path4245"
               inkscape:connector-curvature="0"
               sodipodi:nodetypes="cccccccccccccccccccccccccccccc" />
            <path
               style="fill:none;stroke:#ececec;stroke-width:1px;stroke-linecap:butt;stroke-linejoin:miter;stroke-opacity:1"
               d="m 619.42554,693.32872 -43.31029,-14.84925 -28.1075,-14.93763 -12.81631,-3.97747 -11.66726,1.76776 -4.06586,5.3033 -1.41422,5.30331 -0.88388,7.42462 1.94454,7.07106 -0.44194,3.27037 -5.3033,5.74525 -9.60952,8.78714 -7.375,4.25 -3.875,-0.875 -14.375,1 -5.125,-5 1.25,-4.25 9.125,-1.125 12.875,-1 4.25,-2.125 3.125,-4.375 0.25,-7 -2.375,-0.125 -7.375,4.125 -1.75,1 -20.875,0 -0.625,-2.125 -13.5,-0.125 -0.75,-7.75 17.875,0.5 1.5,-1.625 4.25,-0.125 1.25,0.875 13.375,0.125 0.375,-5.5 -18.625,-23.875 -5.25,-12.875 -1.375,-19.125 -11.125,-21.25 -3.875,-17.875 0.625,-42.75 -1.875,-9.75 -1.125,-16.75 -16.625,-9.875 -6.125,0.125 -1,-1.375 -2.75,-0.125 -1.25,2.25 -9.125,0.75 0,-2.875 4.625,-7.75 -4.375,-0.375 -1.25,-1.75 3.25,-5.875 5.625,-5 3.125,-0.375 4.375,2.5 18.625,0.75 5.875,-6.125 5,-13.25 -0.125,-11.875 -0.125,-9.625 -9.375,-18.125 -7.375,-14.625 -0.75,-7.75 2,-0.625 -4.5,-6.25 -0.125,-7.375 3.25,-5.25 0,-2.75 4.75,-4.875 3.5,-0.75"
               id="path4247"
               inkscape:connector-curvature="0" />
          </g>
          <path
             sodipodi:nodetypes="cccccccccccccccccccccccccccccc"
             inkscape:connector-curvature="0"
             id="path4249"
             d="m 451.5,370.36219 32,21.5 14,16.99999 10.5,-1 7.5,9 -0.0625,6.0625 -6.5,4.9375 -0.1875,25 3.5,10 2.25,10 -0.25,10 -2.25,5.5 3,35.5 12.75,57 7,23.25 5,23.75 1.5,7.75 12.25,16.75 c 31,16 57,25 57,25 l 27,9.625 21.5,4 32.625,2.375 16.25,-0.125 8.375,-1.875 4.75,-2.75 1.66313,1.71133 -7.15946,8.48528 -9.01561,3.00521 -40.39347,0 -46.96959,-8.45182"
             style="fill:none;stroke:#ececec;stroke-width:1px;stroke-linecap:butt;stroke-linejoin:miter;stroke-opacity:1" />
          <path
             inkscape:connector-curvature="0"
             id="path4251"
             d="m 619.42554,693.32872 -43.31029,-14.84925 -28.1075,-14.93763 -12.81631,-3.97747 -11.66726,1.76776 -4.06586,5.3033 -1.41422,5.30331 -0.88388,7.42462 1.94454,7.07106 -0.44194,3.27037 -5.3033,5.74525 -9.60952,8.78714 -7.375,4.25 -3.875,-0.875 -14.375,1 -5.125,-5 1.25,-4.25 9.125,-1.125 12.875,-1 4.25,-2.125 3.125,-4.375 0.25,-7 -2.375,-0.125 -7.375,4.125 -1.75,1 -20.875,0 -0.625,-2.125 -13.5,-0.125 -0.75,-7.75 17.875,0.5 1.5,-1.625 4.25,-0.125 1.25,0.875 13.375,0.125 0.375,-5.5 -18.625,-23.875 -5.25,-12.875 -1.375,-19.125 -11.125,-21.25 -3.875,-17.875 0.625,-42.75 -1.875,-9.75 -1.125,-16.75 -16.625,-9.875 -6.125,0.125 -1,-1.375 -2.75,-0.125 -1.25,2.25 -9.125,0.75 0,-2.875 4.625,-7.75 -4.375,-0.375 -1.25,-1.75 3.25,-5.875 5.625,-5 3.125,-0.375 4.375,2.5 18.625,0.75 5.875,-6.125 5,-13.25 -0.125,-11.875 -0.125,-9.625 -9.375,-18.125 -7.375,-14.625 -0.75,-7.75 2,-0.625 -4.5,-6.25 -0.125,-7.375 3.25,-5.25 0,-2.75 4.75,-4.875 3.5,-0.75"
             style="fill:none;stroke:#ececec;stroke-width:1px;stroke-linecap:butt;stroke-linejoin:miter;stroke-opacity:1" />
        </g>
        <g
           style="stroke:#ececec"
           transform="matrix(0.56927163,-0.82214949,0.82214949,0.56927163,-343.75701,707.0877)"
           id="g4253"
           inkscape:transform-center-x="-75.587796"
           inkscape:transform-center-y="-67.722184">
          <g
             style="stroke:#ececec"
             id="g4255">
            <path
               sodipodi:nodetypes="cccccccccccccccccccccccccccccc"
               inkscape:connector-curvature="0"
               id="path4257"
               d="m 451.5,370.36219 32,21.5 14,16.99999 10.5,-1 7.5,9 -0.0625,6.0625 -6.5,4.9375 -0.1875,25 3.5,10 2.25,10 -0.25,10 -2.25,5.5 3,35.5 12.75,57 7,23.25 5,23.75 1.5,7.75 12.25,16.75 c 31,16 57,25 57,25 l 27,9.625 21.5,4 32.625,2.375 16.25,-0.125 8.375,-1.875 4.75,-2.75 1.66313,1.71133 -7.15946,8.48528 -9.01561,3.00521 -40.39347,0 -46.96959,-8.45182"
               style="fill:none;stroke:#ececec;stroke-width:1px;stroke-linecap:butt;stroke-linejoin:miter;stroke-opacity:1" />
            <path
               inkscape:connector-curvature="0"
               id="path4259"
               d="m 619.42554,693.32872 -43.31029,-14.84925 -28.1075,-14.93763 -12.81631,-3.97747 -11.66726,1.76776 -4.06586,5.3033 -1.41422,5.30331 -0.88388,7.42462 1.94454,7.07106 -0.44194,3.27037 -5.3033,5.74525 -9.60952,8.78714 -7.375,4.25 -3.875,-0.875 -14.375,1 -5.125,-5 1.25,-4.25 9.125,-1.125 12.875,-1 4.25,-2.125 3.125,-4.375 0.25,-7 -2.375,-0.125 -7.375,4.125 -1.75,1 -20.875,0 -0.625,-2.125 -13.5,-0.125 -0.75,-7.75 17.875,0.5 1.5,-1.625 4.25,-0.125 1.25,0.875 13.375,0.125 0.375,-5.5 -18.625,-23.875 -5.25,-12.875 -1.375,-19.125 -11.125,-21.25 -3.875,-17.875 0.625,-42.75 -1.875,-9.75 -1.125,-16.75 -16.625,-9.875 -6.125,0.125 -1,-1.375 -2.75,-0.125 -1.25,2.25 -9.125,0.75 0,-2.875 4.625,-7.75 -4.375,-0.375 -1.25,-1.75 3.25,-5.875 5.625,-5 3.125,-0.375 4.375,2.5 18.625,0.75 5.875,-6.125 5,-13.25 -0.125,-11.875 -0.125,-9.625 -9.375,-18.125 -7.375,-14.625 -0.75,-7.75 2,-0.625 -4.5,-6.25 -0.125,-7.375 3.25,-5.25 0,-2.75 4.75,-4.875 3.5,-0.75"
               style="fill:none;stroke:#ececec;stroke-width:1px;stroke-linecap:butt;stroke-linejoin:miter;stroke-opacity:1" />
          </g>
          <path
             style="fill:none;stroke:#ececec;stroke-width:1px;stroke-linecap:butt;stroke-linejoin:miter;stroke-opacity:1"
             d="m 451.5,370.36219 32,21.5 14,16.99999 10.5,-1 7.5,9 -0.0625,6.0625 -6.5,4.9375 -0.1875,25 3.5,10 2.25,10 -0.25,10 -2.25,5.5 3,35.5 12.75,57 7,23.25 5,23.75 1.5,7.75 12.25,16.75 c 31,16 57,25 57,25 l 27,9.625 21.5,4 32.625,2.375 16.25,-0.125 8.375,-1.875 4.75,-2.75 1.66313,1.71133 -7.15946,8.48528 -9.01561,3.00521 -40.39347,0 -46.96959,-8.45182"
             id="path4261"
             inkscape:connector-curvature="0"
             sodipodi:nodetypes="cccccccccccccccccccccccccccccc" />
          <path
             style="fill:none;stroke:#ececec;stroke-width:1px;stroke-linecap:butt;stroke-linejoin:miter;stroke-opacity:1"
             d="m 619.42554,693.32872 -43.31029,-14.84925 -28.1075,-14.93763 -12.81631,-3.97747 -11.66726,1.76776 -4.06586,5.3033 -1.41422,5.30331 -0.88388,7.42462 1.94454,7.07106 -0.44194,3.27037 -5.3033,5.74525 -9.60952,8.78714 -7.375,4.25 -3.875,-0.875 -14.375,1 -5.125,-5 1.25,-4.25 9.125,-1.125 12.875,-1 4.25,-2.125 3.125,-4.375 0.25,-7 -2.375,-0.125 -7.375,4.125 -1.75,1 -20.875,0 -0.625,-2.125 -13.5,-0.125 -0.75,-7.75 17.875,0.5 1.5,-1.625 4.25,-0.125 1.25,0.875 13.375,0.125 0.375,-5.5 -18.625,-23.875 -5.25,-12.875 -1.375,-19.125 -11.125,-21.25 -3.875,-17.875 0.625,-42.75 -1.875,-9.75 -1.125,-16.75 -16.625,-9.875 -6.125,0.125 -1,-1.375 -2.75,-0.125 -1.25,2.25 -9.125,0.75 0,-2.875 4.625,-7.75 -4.375,-0.375 -1.25,-1.75 3.25,-5.875 5.625,-5 3.125,-0.375 4.375,2.5 18.625,0.75 5.875,-6.125 5,-13.25 -0.125,-11.875 -0.125,-9.625 -9.375,-18.125 -7.375,-14.625 -0.75,-7.75 2,-0.625 -4.5,-6.25 -0.125,-7.375 3.25,-5.25 0,-2.75 4.75,-4.875 3.5,-0.75"
             id="path4263"
             inkscape:connector-curvature="0" />
        </g>
        <g
           inkscape:transform-center-y="-82.059461"
           inkscape:transform-center-x="-119.80346"
           id="g4265"
           transform="matrix(0.26829243,-0.9633375,0.9633375,0.26829243,-288.61679,983.24973)"
           style="stroke:#ececec">
          <g
             id="g4267"
             style="stroke:#ececec">
            <path
               style="fill:none;stroke:#ececec;stroke-width:1px;stroke-linecap:butt;stroke-linejoin:miter;stroke-opacity:1"
               d="m 451.5,370.36219 32,21.5 14,16.99999 10.5,-1 7.5,9 -0.0625,6.0625 -6.5,4.9375 -0.1875,25 3.5,10 2.25,10 -0.25,10 -2.25,5.5 3,35.5 12.75,57 7,23.25 5,23.75 1.5,7.75 12.25,16.75 c 31,16 57,25 57,25 l 27,9.625 21.5,4 32.625,2.375 16.25,-0.125 8.375,-1.875 4.75,-2.75 1.66313,1.71133 -7.15946,8.48528 -9.01561,3.00521 -40.39347,0 -46.96959,-8.45182"
               id="path4269"
               inkscape:connector-curvature="0"
               sodipodi:nodetypes="cccccccccccccccccccccccccccccc" />
            <path
               style="fill:none;stroke:#ececec;stroke-width:1px;stroke-linecap:butt;stroke-linejoin:miter;stroke-opacity:1"
               d="m 619.42554,693.32872 -43.31029,-14.84925 -28.1075,-14.93763 -12.81631,-3.97747 -11.66726,1.76776 -4.06586,5.3033 -1.41422,5.30331 -0.88388,7.42462 1.94454,7.07106 -0.44194,3.27037 -5.3033,5.74525 -9.60952,8.78714 -7.375,4.25 -3.875,-0.875 -14.375,1 -5.125,-5 1.25,-4.25 9.125,-1.125 12.875,-1 4.25,-2.125 3.125,-4.375 0.25,-7 -2.375,-0.125 -7.375,4.125 -1.75,1 -20.875,0 -0.625,-2.125 -13.5,-0.125 -0.75,-7.75 17.875,0.5 1.5,-1.625 4.25,-0.125 1.25,0.875 13.375,0.125 0.375,-5.5 -18.625,-23.875 -5.25,-12.875 -1.375,-19.125 -11.125,-21.25 -3.875,-17.875 0.625,-42.75 -1.875,-9.75 -1.125,-16.75 -16.625,-9.875 -6.125,0.125 -1,-1.375 -2.75,-0.125 -1.25,2.25 -9.125,0.75 0,-2.875 4.625,-7.75 -4.375,-0.375 -1.25,-1.75 3.25,-5.875 5.625,-5 3.125,-0.375 4.375,2.5 18.625,0.75 5.875,-6.125 5,-13.25 -0.125,-11.875 -0.125,-9.625 -9.375,-18.125 -7.375,-14.625 -0.75,-7.75 2,-0.625 -4.5,-6.25 -0.125,-7.375 3.25,-5.25 0,-2.75 4.75,-4.875 3.5,-0.75"
               id="path4271"
               inkscape:connector-curvature="0" />
          </g>
          <path
             sodipodi:nodetypes="cccccccccccccccccccccccccccccc"
             inkscape:connector-curvature="0"
             id="path4273"
             d="m 451.5,370.36219 32,21.5 14,16.99999 10.5,-1 7.5,9 -0.0625,6.0625 -6.5,4.9375 -0.1875,25 3.5,10 2.25,10 -0.25,10 -2.25,5.5 3,35.5 12.75,57 7,23.25 5,23.75 1.5,7.75 12.25,16.75 c 31,16 57,25 57,25 l 27,9.625 21.5,4 32.625,2.375 16.25,-0.125 8.375,-1.875 4.75,-2.75 1.66313,1.71133 -7.15946,8.48528 -9.01561,3.00521 -40.39347,0 -46.96959,-8.45182"
             style="fill:none;stroke:#ececec;stroke-width:1px;stroke-linecap:butt;stroke-linejoin:miter;stroke-opacity:1" />
          <path
             inkscape:connector-curvature="0"
             id="path4275"
             d="m 619.42554,693.32872 -43.31029,-14.84925 -28.1075,-14.93763 -12.81631,-3.97747 -11.66726,1.76776 -4.06586,5.3033 -1.41422,5.30331 -0.88388,7.42462 1.94454,7.07106 -0.44194,3.27037 -5.3033,5.74525 -9.60952,8.78714 -7.375,4.25 -3.875,-0.875 -14.375,1 -5.125,-5 1.25,-4.25 9.125,-1.125 12.875,-1 4.25,-2.125 3.125,-4.375 0.25,-7 -2.375,-0.125 -7.375,4.125 -1.75,1 -20.875,0 -0.625,-2.125 -13.5,-0.125 -0.75,-7.75 17.875,0.5 1.5,-1.625 4.25,-0.125 1.25,0.875 13.375,0.125 0.375,-5.5 -18.625,-23.875 -5.25,-12.875 -1.375,-19.125 -11.125,-21.25 -3.875,-17.875 0.625,-42.75 -1.875,-9.75 -1.125,-16.75 -16.625,-9.875 -6.125,0.125 -1,-1.375 -2.75,-0.125 -1.25,2.25 -9.125,0.75 0,-2.875 4.625,-7.75 -4.375,-0.375 -1.25,-1.75 3.25,-5.875 5.625,-5 3.125,-0.375 4.375,2.5 18.625,0.75 5.875,-6.125 5,-13.25 -0.125,-11.875 -0.125,-9.625 -9.375,-18.125 -7.375,-14.625 -0.75,-7.75 2,-0.625 -4.5,-6.25 -0.125,-7.375 3.25,-5.25 0,-2.75 4.75,-4.875 3.5,-0.75"
             style="fill:none;stroke:#ececec;stroke-width:1px;stroke-linecap:butt;stroke-linejoin:miter;stroke-opacity:1" />
        </g>
        <g
           id="g4138"
           inkscape:transform-center-x="65.76093"
           inkscape:transform-center-y="-142.12846"
           style="stroke:#000000;stroke-opacity:1;stroke-width:3;stroke-miterlimit:4;stroke-dasharray:none">
          <g
             id="g4119"
             style="stroke:#000000;stroke-opacity:1;stroke-width:3;stroke-miterlimit:4;stroke-dasharray:none">
            <path
               sodipodi:nodetypes="cccccccccccccccccccccccccccccc"
               inkscape:connector-curvature="0"
               id="path4115"
               d="m 451.5,370.36219 32,21.5 14,16.99999 10.5,-1 7.5,9 -0.0625,6.0625 -6.5,4.9375 -0.1875,25 3.5,10 2.25,10 -0.25,10 -2.25,5.5 3,35.5 12.75,57 7,23.25 5,23.75 1.5,7.75 12.25,16.75 c 31,16 57,25 57,25 l 27,9.625 21.5,4 32.625,2.375 16.25,-0.125 8.375,-1.875 4.75,-2.75 1.66313,1.71133 -7.15946,8.48528 -9.01561,3.00521 -40.39347,0 -46.96959,-8.45182"
               style="fill:none;stroke:#000000;stroke-width:3;stroke-linecap:butt;stroke-linejoin:miter;stroke-opacity:1;stroke-miterlimit:4;stroke-dasharray:none" />
            <path
               inkscape:connector-curvature="0"
               id="path4117"
               d="m 619.42554,693.32872 -43.31029,-14.84925 -28.1075,-14.93763 -12.81631,-3.97747 -11.66726,1.76776 -4.06586,5.3033 -1.41422,5.30331 -0.88388,7.42462 1.94454,7.07106 -0.44194,3.27037 -5.3033,5.74525 -9.60952,8.78714 -7.375,4.25 -3.875,-0.875 -14.375,1 -5.125,-5 1.25,-4.25 9.125,-1.125 12.875,-1 4.25,-2.125 3.125,-4.375 0.25,-7 -2.375,-0.125 -7.375,4.125 -1.75,1 -20.875,0 -0.625,-2.125 -13.5,-0.125 -0.75,-7.75 17.875,0.5 1.5,-1.625 4.25,-0.125 1.25,0.875 13.375,0.125 0.375,-5.5 -18.625,-23.875 -5.25,-12.875 -1.375,-19.125 -11.125,-21.25 -3.875,-17.875 0.625,-42.75 -1.875,-9.75 -1.125,-16.75 -16.625,-9.875 -6.125,0.125 -1,-1.375 -2.75,-0.125 -1.25,2.25 -9.125,0.75 0,-2.875 4.625,-7.75 -4.375,-0.375 -1.25,-1.75 3.25,-5.875 5.625,-5 3.125,-0.375 4.375,2.5 18.625,0.75 5.875,-6.125 5,-13.25 -0.125,-11.875 -0.125,-9.625 -9.375,-18.125 -7.375,-14.625 -0.75,-7.75 2,-0.625 -4.5,-6.25 -0.125,-7.375 3.25,-5.25 0,-2.75 4.75,-4.875 3.5,-0.75"
               style="fill:none;stroke:#000000;stroke-width:3;stroke-linecap:butt;stroke-linejoin:miter;stroke-opacity:1;stroke-miterlimit:4;stroke-dasharray:none" />
          </g>
          <path
             style="fill:none;stroke:#000000;stroke-width:3;stroke-linecap:butt;stroke-linejoin:miter;stroke-opacity:1;stroke-miterlimit:4;stroke-dasharray:none"
             d="m 451.5,370.36219 32,21.5 14,16.99999 10.5,-1 7.5,9 -0.0625,6.0625 -6.5,4.9375 -0.1875,25 3.5,10 2.25,10 -0.25,10 -2.25,5.5 3,35.5 12.75,57 7,23.25 5,23.75 1.5,7.75 12.25,16.75 c 31,16 57,25 57,25 l 27,9.625 21.5,4 32.625,2.375 16.25,-0.125 8.375,-1.875 4.75,-2.75 1.66313,1.71133 -7.15946,8.48528 -9.01561,3.00521 -40.39347,0 -46.96959,-8.45182"
             id="path4125"
             inkscape:connector-curvature="0"
             sodipodi:nodetypes="cccccccccccccccccccccccccccccc" />
          <path
             style="fill:none;stroke:#000000;stroke-width:3;stroke-linecap:butt;stroke-linejoin:miter;stroke-opacity:1;stroke-miterlimit:4;stroke-dasharray:none"
             d="m 619.42554,693.32872 -43.31029,-14.84925 -28.1075,-14.93763 -12.81631,-3.97747 -11.66726,1.76776 -4.06586,5.3033 -1.41422,5.30331 -0.88388,7.42462 1.94454,7.07106 -0.44194,3.27037 -5.3033,5.74525 -9.60952,8.78714 -7.375,4.25 -3.875,-0.875 -14.375,1 -5.125,-5 1.25,-4.25 9.125,-1.125 12.875,-1 4.25,-2.125 3.125,-4.375 0.25,-7 -2.375,-0.125 -7.375,4.125 -1.75,1 -20.875,0 -0.625,-2.125 -13.5,-0.125 -0.75,-7.75 17.875,0.5 1.5,-1.625 4.25,-0.125 1.25,0.875 13.375,0.125 0.375,-5.5 -18.625,-23.875 -5.25,-12.875 -1.375,-19.125 -11.125,-21.25 -3.875,-17.875 0.625,-42.75 -1.875,-9.75 -1.125,-16.75 -16.625,-9.875 -6.125,0.125 -1,-1.375 -2.75,-0.125 -1.25,2.25 -9.125,0.75 0,-2.875 4.625,-7.75 -4.375,-0.375 -1.25,-1.75 3.25,-5.875 5.625,-5 3.125,-0.375 4.375,2.5 18.625,0.75 5.875,-6.125 5,-13.25 -0.125,-11.875 -0.125,-9.625 -9.375,-18.125 -7.375,-14.625 -0.75,-7.75 2,-0.625 -4.5,-6.25 -0.125,-7.375 3.25,-5.25 0,-2.75 4.75,-4.875 3.5,-0.75"
             id="path4127"
             inkscape:connector-curvature="0" />
        </g>
      </g>
    </g>
  </g>
</svg>
