<?xml version="1.0" encoding="UTF-8" standalone="no"?>
<!-- Created with Inkscape (http://www.inkscape.org/) -->

<svg
   xmlns:dc="http://purl.org/dc/elements/1.1/"
   xmlns:cc="http://creativecommons.org/ns#"
   xmlns:rdf="http://www.w3.org/1999/02/22-rdf-syntax-ns#"
   xmlns:svg="http://www.w3.org/2000/svg"
   xmlns="http://www.w3.org/2000/svg"
   xmlns:xlink="http://www.w3.org/1999/xlink"
   xmlns:sodipodi="http://sodipodi.sourceforge.net/DTD/sodipodi-0.dtd"
   xmlns:inkscape="http://www.inkscape.org/namespaces/inkscape"
   width="744.09448819"
   height="1052.3622047"
   id="svg2"
   version="1.1"
   inkscape:version="0.48.3.1 r9886"
   sodipodi:docname="black_joe.svg">
  <defs
     id="defs4">
    <linearGradient
       id="linearGradient7640">
      <stop
         style="stop-color:#000000;stop-opacity:1;"
         offset="0"
         id="stop7642" />
      <stop
         id="stop7648"
         offset="0.40449437"
         style="stop-color:#4f4f4f;stop-opacity:1;" />
      <stop
         style="stop-color:#262626;stop-opacity:0;"
         offset="1"
         id="stop7644" />
    </linearGradient>
    <inkscape:perspective
       sodipodi:type="inkscape:persp3d"
       inkscape:vp_x="49.423504 : 420.30084 : 1"
       inkscape:vp_y="0 : 695.66899 : 0"
       inkscape:vp_z="597.85112 : 420.30084 : 1"
       inkscape:persp3d-origin="323.63731 : 298.28488 : 1"
       id="perspective4981" />
    <path
       inkscape:connector-curvature="0"
       transform="matrix(0.35287021,0,0,0.35132314,411.7446,141.72222)"
       style="fill:none;stroke:#000000;stroke-width:1;stroke-miterlimit:4;stroke-opacity:1"
       d="m 327.85714,457.00504 c 0,47.93042 -38.85529,86.78571 -86.78571,86.78571 -47.93043,0 -86.78572,-38.85529 -86.78572,-86.78571 0,-47.93043 38.85529,-86.78572 86.78572,-86.78572 47.93042,0 86.78571,38.85529 86.78571,86.78572 z"
       id="path3812-8" />
    <path
       id="path3877-5"
       d="m 512.56036,302.27866 c 0,8.65971 -7.05099,15.67979 -15.74883,15.67979 -8.69785,0 -15.74884,-7.02008 -15.74884,-15.67979 0,-8.6597 7.05099,-15.67979 15.74884,-15.67979 8.69784,0 15.74883,7.02009 15.74883,15.67979 z"
       style="fill:none;stroke:#000000;stroke-width:0.18106984;stroke-miterlimit:4;stroke-opacity:1"
       inkscape:connector-curvature="0" />
    <path
       inkscape:connector-curvature="0"
       transform="matrix(0.35287021,0,0,0.35132314,411.7446,141.72222)"
       style="fill:none;stroke:#000000;stroke-width:1;stroke-miterlimit:4;stroke-opacity:1"
       d="m 327.85714,457.00504 c 0,47.93042 -38.85529,86.78571 -86.78571,86.78571 -47.93043,0 -86.78572,-38.85529 -86.78572,-86.78571 0,-47.93043 38.85529,-86.78572 86.78572,-86.78572 47.93042,0 86.78571,38.85529 86.78571,86.78572 z"
       id="path3812-7" />
    <path
       inkscape:connector-curvature="0"
       transform="matrix(0.5358943,0,0,0.5335448,367.62273,58.446006)"
       style="fill:none;stroke:#000000;stroke-width:1;stroke-miterlimit:4;stroke-opacity:1"
       d="m 327.85714,457.00504 c 0,47.93042 -38.85529,86.78571 -86.78571,86.78571 -47.93043,0 -86.78572,-38.85529 -86.78572,-86.78571 0,-47.93043 38.85529,-86.78572 86.78572,-86.78572 47.93042,0 86.78571,38.85529 86.78571,86.78572 z"
       id="path3810-7" />
    <path
       inkscape:connector-curvature="0"
       transform="matrix(0.7290464,0,0,0.72585007,321.05928,-29.438472)"
       style="fill:none;stroke:#000000;stroke-width:1;stroke-miterlimit:4;stroke-opacity:1"
       d="m 327.85714,457.00504 c 0,47.93042 -38.85529,86.78571 -86.78571,86.78571 -47.93043,0 -86.78572,-38.85529 -86.78572,-86.78571 0,-47.93043 38.85529,-86.78572 86.78572,-86.78572 47.93042,0 86.78571,38.85529 86.78571,86.78572 z"
       id="path3808-3" />
    <path
       inkscape:connector-curvature="0"
       transform="matrix(0.93863698,0,0,0.93452175,270.53298,-124.80248)"
       style="fill:none;stroke:#000000;stroke-width:1;stroke-miterlimit:4;stroke-opacity:1"
       d="m 327.85714,457.00504 c 0,47.93042 -38.85529,86.78571 -86.78571,86.78571 -47.93043,0 -86.78572,-38.85529 -86.78572,-86.78571 0,-47.93043 38.85529,-86.78572 86.78572,-86.78572 47.93042,0 86.78571,38.85529 86.78571,86.78572 z"
       id="path3806-5" />
    <path
       inkscape:connector-curvature="0"
       transform="matrix(1.1283304,0,0,1.1283304,224.80331,-213.37402)"
       style="fill:none;stroke:#000000;stroke-width:1;stroke-miterlimit:4;stroke-opacity:1"
       d="m 327.85714,457.00504 c 0,47.93042 -38.85529,86.78571 -86.78571,86.78571 -47.93043,0 -86.78572,-38.85529 -86.78572,-86.78571 0,-47.93043 38.85529,-86.78572 86.78572,-86.78572 47.93042,0 86.78571,38.85529 86.78571,86.78572 z"
       id="path3790-9" />
    <path
       id="path3877"
       d="m 223.55565,596.76936 c 0,8.65971 -7.05099,15.67979 -15.74883,15.67979 -8.69785,0 -15.74884,-7.02008 -15.74884,-15.67979 0,-8.6597 7.05099,-15.67979 15.74884,-15.67979 8.69784,0 15.74883,7.02009 15.74883,15.67979 z"
       style="fill:none;stroke:#000000;stroke-width:0.18106984;stroke-miterlimit:4;stroke-opacity:1"
       inkscape:connector-curvature="0" />
    <path
       style="fill:none;stroke:#000000;stroke-width:0.35209581;stroke-miterlimit:4;stroke-opacity:1"
       d="m 238.4309,596.76937 c 0,16.83906 -13.71087,30.48982 -30.62409,30.48982 -16.91322,0 -30.62409,-13.65076 -30.62409,-30.48982 0,-16.83907 13.71087,-30.48984 30.62409,-30.48984 16.91322,0 30.62409,13.65077 30.62409,30.48984 z"
       id="path3812"
       inkscape:connector-curvature="0" />
    <path
       style="fill:none;stroke:#000000;stroke-width:0.53471828;stroke-miterlimit:4;stroke-opacity:1"
       d="m 254.31479,596.76937 c 0,25.57303 -20.82233,46.30406 -46.50797,46.30406 -25.68564,0 -46.50797,-20.73103 -46.50797,-46.30406 0,-25.57303 20.82233,-46.30407 46.50797,-46.30407 25.68564,0 46.50797,20.73104 46.50797,46.30407 z"
       id="path3810"
       inkscape:connector-curvature="0" />
    <path
       style="fill:none;stroke:#000000;stroke-width:0.7274465;stroke-miterlimit:4;stroke-opacity:1"
       d="m 271.07763,596.76937 c 0,34.7903 -28.32731,62.99341 -63.27081,62.99341 -34.9435,0 -63.27081,-28.20311 -63.27081,-62.99341 0,-34.79031 28.32731,-62.99342 63.27081,-62.99342 34.9435,0 63.27081,28.20311 63.27081,62.99342 z"
       id="path3808"
       inkscape:connector-curvature="0" />
    <path
       style="fill:none;stroke:#000000;stroke-width:0.93657708;stroke-miterlimit:4;stroke-opacity:1"
       d="m 289.2671,596.76937 c 0,44.79202 -36.47101,81.10313 -81.46028,81.10313 -44.98927,0 -81.46028,-36.31111 -81.46028,-81.10313 0,-44.79203 36.47101,-81.10314 81.46028,-81.10314 44.98927,0 81.46028,36.31111 81.46028,81.10314 z"
       id="path3806"
       inkscape:connector-curvature="0" />
    <path
       style="fill:none;stroke:#000000;stroke-width:1.12833035;stroke-miterlimit:4;stroke-opacity:1"
       d="m 305.72977,596.76936 c 0,54.08135 -43.8416,97.92296 -97.92295,97.92296 -54.08136,0 -97.92297,-43.84161 -97.92297,-97.92296 0,-54.08136 43.84161,-97.92297 97.92297,-97.92297 54.08135,0 97.92295,43.84161 97.92295,97.92297 z"
       id="path3790"
       inkscape:connector-curvature="0" />
    <linearGradient
       inkscape:collect="always"
       xlink:href="#linearGradient7640"
       id="linearGradient7646"
       x1="367.64243"
       y1="267.76038"
       x2="403.65051"
       y2="1295.8854"
       gradientUnits="userSpaceOnUse" />
  </defs>
  <sodipodi:namedview
     id="base"
     pagecolor="#ffffff"
     bordercolor="#666666"
     borderopacity="1.0"
     inkscape:pageopacity="0.0"
     inkscape:pageshadow="2"
     inkscape:zoom="2.56"
     inkscape:cx="263.7924"
     inkscape:cy="727.42451"
     inkscape:document-units="px"
     inkscape:current-layer="layer1"
     showgrid="false"
     inkscape:window-width="1920"
     inkscape:window-height="1012"
     inkscape:window-x="0"
     inkscape:window-y="34"
     inkscape:window-maximized="1"
     showguides="true"
     inkscape:guide-bbox="true" />
  <metadata
     id="metadata7">
    <rdf:RDF>
      <cc:Work
         rdf:about="">
        <dc:format>image/svg+xml</dc:format>
        <dc:type
           rdf:resource="http://purl.org/dc/dcmitype/StillImage" />
        <dc:title></dc:title>
      </cc:Work>
    </rdf:RDF>
  </metadata>
  <g
     inkscape:groupmode="layer"
     id="layer2"
     inkscape:label="pozadi"
     style="opacity:0.85889569;display:inline">
    <rect
       style="fill:url(#linearGradient7646);fill-opacity:1;stroke:none"
       id="rect5108"
       width="765.69562"
       height="1036.7848"
       x="-15.170089"
       y="-2.1945188"
       inkscape:transform-center-y="-518.3924" />
  </g>
  <g
     inkscape:groupmode="layer"
     id="layer5"
     inkscape:label="paprsky"
     style="display:none">
    <g
       id="g5521"
       transform="matrix(0.97041758,0,0,0.97041758,-2.3939867,23.227355)">
      <g
         style="stroke-width:2;stroke-miterlimit:4;stroke-dasharray:none"
         id="g5350">
        <path
           inkscape:connector-curvature="0"
           id="path5342"
           d="M -18.727638,329.2154 C 239.19501,397.31673 234.63115,395.35368 234.63115,395.35368"
           style="fill:#13457d;fill-opacity:1;stroke:#11457e;stroke-width:2;stroke-linecap:butt;stroke-linejoin:miter;stroke-miterlimit:4;stroke-opacity:1;stroke-dasharray:none" />
        <path
           style="fill:#d6141b;fill-opacity:1;stroke:#ffd700;stroke-width:2;stroke-linecap:butt;stroke-linejoin:miter;stroke-miterlimit:4;stroke-opacity:1;stroke-dasharray:none"
           d="m -17.52013,353.62226 c 256.74992,43.09714 252.22289,41.79457 252.22289,41.79457"
           id="path5344"
           inkscape:connector-curvature="0" />
        <path
           inkscape:connector-curvature="0"
           id="path5346"
           d="M -15.726962,375.7003 C 239.26398,396.19183 234.78249,395.48683 234.78249,395.48683"
           style="fill:#d6141b;fill-opacity:1;stroke:#d6141b;stroke-width:2;stroke-linecap:butt;stroke-linejoin:miter;stroke-miterlimit:4;stroke-opacity:1;stroke-dasharray:none" />
        <path
           style="fill:#ffffff;fill-opacity:1;stroke:#ffffff;stroke-width:2;stroke-linecap:butt;stroke-linejoin:miter;stroke-miterlimit:4;stroke-opacity:1;stroke-dasharray:none"
           d="M -14.604178,395.7855 C 239.32864,395.7334 234.87906,395.57118 234.87906,395.57118"
           id="path5348"
           inkscape:connector-curvature="0" />
      </g>
      <path
         inkscape:connector-curvature="0"
         id="path5358"
         d="M -17.495991,226.8865 C 239.04375,399.03747 234.79427,395.16611 234.79427,395.16611"
         style="fill:#13457d;fill-opacity:1;stroke:#11457e;stroke-width:2;stroke-linecap:butt;stroke-linejoin:miter;stroke-miterlimit:4;stroke-opacity:1;stroke-dasharray:none" />
      <path
         style="fill:#d6141b;fill-opacity:1;stroke:#ffd700;stroke-width:1.93404198;stroke-linecap:butt;stroke-linejoin:miter;stroke-miterlimit:4;stroke-opacity:1;stroke-dasharray:none"
         d="M -15.384306,257.78854 C 239.17056,398.34827 234.88173,395.2952 234.88173,395.2952"
         id="path5360"
         inkscape:connector-curvature="0" />
      <path
         inkscape:connector-curvature="0"
         id="path5362"
         d="M -15.234433,281.71192 C 239.30385,397.81941 234.95395,395.41315 234.95395,395.41315"
         style="fill:#d6141b;fill-opacity:1;stroke:#d6141b;stroke-width:1.91104341;stroke-linecap:butt;stroke-linejoin:miter;stroke-miterlimit:4;stroke-opacity:1;stroke-dasharray:none" />
      <path
         style="fill:#ffffff;fill-opacity:1;stroke:#ffffff;stroke-width:2;stroke-linecap:butt;stroke-linejoin:miter;stroke-miterlimit:4;stroke-opacity:1;stroke-dasharray:none"
         d="M -38.438395,300.92331 C 239.79571,397.36459 234.9827,395.4971 234.9827,395.4971"
         id="path5364"
         inkscape:connector-curvature="0" />
      <path
         style="fill:#13457d;fill-opacity:1;stroke:#11457e;stroke-width:1.9646914;stroke-linecap:butt;stroke-linejoin:miter;stroke-miterlimit:4;stroke-opacity:1;stroke-dasharray:none"
         d="M -15.157358,65.958982 C 238.57314,401.68678 234.8303,394.81763 234.8303,394.81763"
         id="path5368"
         inkscape:connector-curvature="0" />
      <path
         inkscape:connector-curvature="0"
         id="path5370"
         d="M -16.270835,109.67479 C 238.92422,400.79737 234.91735,395.02758 234.91735,395.02758"
         style="fill:#d6141b;fill-opacity:1;stroke:#ffd700;stroke-width:1.84586203;stroke-linecap:butt;stroke-linejoin:miter;stroke-miterlimit:4;stroke-opacity:1;stroke-dasharray:none" />
      <path
         style="fill:#d6141b;fill-opacity:1;stroke:#d6141b;stroke-width:1.71589029;stroke-linecap:butt;stroke-linejoin:miter;stroke-miterlimit:4;stroke-opacity:1;stroke-dasharray:none"
         d="M -15.096646,155.35901 C 239.1917,399.93455 235.01348,395.25978 235.01348,395.25978"
         id="path5372"
         inkscape:connector-curvature="0" />
      <path
         inkscape:connector-curvature="0"
         id="path5374"
         d="M -80.925982,146.92296 C 240.37485,399.95576 234.90827,395.31834 234.90827,395.31834"
         style="fill:#ffffff;fill-opacity:1;stroke:#ffffff;stroke-width:2;stroke-linecap:butt;stroke-linejoin:miter;stroke-miterlimit:4;stroke-opacity:1;stroke-dasharray:none" />
      <path
         inkscape:connector-curvature="0"
         id="path5378"
         d="M 70.454297,-1.0099454 C 169.73465,236.00831 168.27014,231.15881 168.27014,231.15881"
         style="fill:#13457d;fill-opacity:1;stroke:#11457e;stroke-width:0.83917779;stroke-linecap:butt;stroke-linejoin:miter;stroke-miterlimit:4;stroke-opacity:1;stroke-dasharray:none" />
      <path
         style="fill:#d6141b;fill-opacity:1;stroke:#ffd700;stroke-width:1.13997066;stroke-linecap:butt;stroke-linejoin:miter;stroke-miterlimit:4;stroke-opacity:1;stroke-dasharray:none"
         d="M 36.488512,-1.2189292 C 183.73774,290.15439 181.42576,284.37963 181.42576,284.37963"
         id="path5380"
         inkscape:connector-curvature="0" />
      <path
         inkscape:connector-curvature="0"
         id="path5382"
         d="M 0.38748415,-2.8056367 C 238.97966,402.64981 235.05934,394.90002 235.05934,394.90002"
         style="fill:#d6141b;fill-opacity:1;stroke:#d6141b;stroke-width:1.73914802;stroke-linecap:butt;stroke-linejoin:miter;stroke-miterlimit:4;stroke-opacity:1;stroke-dasharray:none" />
      <path
         style="fill:#ffffff;fill-opacity:1;stroke:#ffffff;stroke-width:2;stroke-linecap:butt;stroke-linejoin:miter;stroke-miterlimit:4;stroke-opacity:1;stroke-dasharray:none"
         d="M -52.026317,-18.803895 C 239.92985,402.83128 234.96253,395.10384 234.96253,395.10384"
         id="path5384"
         inkscape:connector-curvature="0" />
      <g
         style="stroke-width:2;stroke-miterlimit:4;stroke-dasharray:none"
         transform="matrix(1,0,0,-1,0,791.22861)"
         id="g5392">
        <path
           style="fill:#13457d;fill-opacity:1;stroke:#11457e;stroke-width:2;stroke-linecap:butt;stroke-linejoin:miter;stroke-miterlimit:4;stroke-opacity:1;stroke-dasharray:none"
           d="M -18.727638,329.2154 C 239.19501,397.31673 234.63115,395.35368 234.63115,395.35368"
           id="path5394"
           inkscape:connector-curvature="0" />
        <path
           inkscape:connector-curvature="0"
           id="path5396"
           d="m -17.52013,353.62226 c 256.74992,43.09714 252.22289,41.79457 252.22289,41.79457"
           style="fill:#d6141b;fill-opacity:1;stroke:#ffd700;stroke-width:2;stroke-linecap:butt;stroke-linejoin:miter;stroke-miterlimit:4;stroke-opacity:1;stroke-dasharray:none" />
        <path
           style="fill:#d6141b;fill-opacity:1;stroke:#d6141b;stroke-width:2;stroke-linecap:butt;stroke-linejoin:miter;stroke-miterlimit:4;stroke-opacity:1;stroke-dasharray:none"
           d="M -15.726962,375.7003 C 239.26398,396.19183 234.78249,395.48683 234.78249,395.48683"
           id="path5398"
           inkscape:connector-curvature="0" />
        <path
           inkscape:connector-curvature="0"
           id="path5400"
           d="M -14.604178,395.7855 C 239.32864,395.7334 234.87906,395.57118 234.87906,395.57118"
           style="fill:#ffffff;fill-opacity:1;stroke:#ffffff;stroke-width:2;stroke-linecap:butt;stroke-linejoin:miter;stroke-miterlimit:4;stroke-opacity:1;stroke-dasharray:none" />
      </g>
      <path
         style="fill:#13457d;fill-opacity:1;stroke:#11457e;stroke-width:1.96545291;stroke-linecap:butt;stroke-linejoin:miter;stroke-miterlimit:4;stroke-opacity:1;stroke-dasharray:none"
         d="M -15.169515,560.06251 C 239.02217,392.27174 234.81158,396.04504 234.81158,396.04504"
         id="path5404"
         inkscape:connector-curvature="0" />
      <path
         inkscape:connector-curvature="0"
         id="path5406"
         d="M -14.605908,533.0523 C 239.16013,392.88602 234.8846,395.93055 234.8846,395.93055"
         style="fill:#d6141b;fill-opacity:1;stroke:#ffd700;stroke-width:1.92833853;stroke-linecap:butt;stroke-linejoin:miter;stroke-miterlimit:4;stroke-opacity:1;stroke-dasharray:none" />
      <path
         style="fill:#d6141b;fill-opacity:1;stroke:#d6141b;stroke-width:1.88307977;stroke-linecap:butt;stroke-linejoin:miter;stroke-miterlimit:4;stroke-opacity:1;stroke-dasharray:none"
         d="M -15.63904,506.01505 C 239.3251,393.46891 234.96792,395.80136 234.96792,395.80136"
         id="path5408"
         inkscape:connector-curvature="0" />
      <path
         inkscape:connector-curvature="0"
         id="path5410"
         d="M -38.438395,490.3053 C 239.79571,393.86402 234.9827,395.73151 234.9827,395.73151"
         style="fill:#ffffff;fill-opacity:1;stroke:#ffffff;stroke-width:2;stroke-linecap:butt;stroke-linejoin:miter;stroke-miterlimit:4;stroke-opacity:1;stroke-dasharray:none" />
      <path
         inkscape:connector-curvature="0"
         id="path5414"
         d="M -13.624261,707.72086 C 238.58005,389.87775 234.85972,396.38097 234.85972,396.38097"
         style="fill:#13457d;fill-opacity:1;stroke:#11457e;stroke-width:1.90588629;stroke-linecap:butt;stroke-linejoin:miter;stroke-miterlimit:4;stroke-opacity:1;stroke-dasharray:none" />
      <path
         style="fill:#d6141b;fill-opacity:1;stroke:#ffd700;stroke-width:1.80413461;stroke-linecap:butt;stroke-linejoin:miter;stroke-miterlimit:4;stroke-opacity:1;stroke-dasharray:none"
         d="M -15.119824,670.00908 C 238.92708,390.643 234.93823,396.17978 234.93823,396.17978"
         id="path5416"
         inkscape:connector-curvature="0" />
      <path
         inkscape:connector-curvature="0"
         id="path5418"
         d="M -14.721367,627.68178 C 239.20104,391.43771 235.02883,395.95323 235.02883,395.95323"
         style="fill:#d6141b;fill-opacity:1;stroke:#d6141b;stroke-width:1.68519723;stroke-linecap:butt;stroke-linejoin:miter;stroke-miterlimit:4;stroke-opacity:1;stroke-dasharray:none" />
      <path
         style="fill:#ffffff;fill-opacity:1;stroke:#ffffff;stroke-width:2;stroke-linecap:butt;stroke-linejoin:miter;stroke-miterlimit:4;stroke-opacity:1;stroke-dasharray:none"
         d="M -80.925982,644.30561 C 240.37485,391.27281 234.90827,395.91023 234.90827,395.91023"
         id="path5420"
         inkscape:connector-curvature="0" />
      <path
         style="fill:#13457d;fill-opacity:1;stroke:#11457e;stroke-width:2;stroke-linecap:butt;stroke-linejoin:miter;stroke-miterlimit:4;stroke-opacity:1;stroke-dasharray:none"
         d="M 3.8472075,955.32994 C 238.33457,385.32626 234.87559,396.98878 234.87559,396.98878"
         id="path5426"
         inkscape:connector-curvature="0" />
      <path
         inkscape:connector-curvature="0"
         id="path5428"
         d="M -16.987724,902.56432 C 238.91844,386.51079 234.90041,396.73851 234.90041,396.73851"
         style="fill:#d6141b;fill-opacity:1;stroke:#ffd700;stroke-width:2;stroke-linecap:butt;stroke-linejoin:miter;stroke-miterlimit:4;stroke-opacity:1;stroke-dasharray:none" />
      <path
         style="fill:#d6141b;fill-opacity:1;stroke:#d6141b;stroke-width:1.84960675;stroke-linecap:butt;stroke-linejoin:miter;stroke-miterlimit:4;stroke-opacity:1;stroke-dasharray:none"
         d="M -14.791662,818.97894 C 239.17682,388.14961 235.00386,396.3844 235.00386,396.3844"
         id="path5430"
         inkscape:connector-curvature="0" />
      <path
         inkscape:connector-curvature="0"
         id="path5432"
         d="M -52.026317,810.03242 C 239.92985,388.39725 234.96253,396.12469 234.96253,396.12469"
         style="fill:#ffffff;fill-opacity:1;stroke:#ffffff;stroke-width:2;stroke-linecap:butt;stroke-linejoin:miter;stroke-miterlimit:4;stroke-opacity:1;stroke-dasharray:none" />
    </g>
  </g>
  <g
     inkscape:groupmode="layer"
     id="layer9"
     inkscape:label="paprsky2" />
  <g
     inkscape:label="promitacka"
     inkscape:groupmode="layer"
     id="layer1"
     style="display:inline">
    <path
       style="fill:#000000;fill-opacity:0"
       inkscape:connector-curvature="0"
       d="M 373.76487,553.29113 746.59992,304.73443 V 801.84785 z"
       id="path4771" />
    <path
       inkscape:connector-curvature="0"
       style="fill:none;stroke:none"
       d="m 193.99973,363.48473 c 1.65399,-2.09606 4.66339,0.0998 5.36498,1.84611 1.59559,3.97157 -1.9952,7.84993 -5.88542,8.63947 -6.24754,1.26799 -11.76594,-3.74975 -12.57767,-9.48935 -1.13417,-8.01933 5.79739,-14.85109 13.82225,-15.58536 10.39696,-0.95133 19.09528,7.41705 19.79035,17.13257 0.85866,12.00217 -9.60674,21.93615 -21.75907,22.53129 -14.52791,0.71146 -26.46791,-11.08583 -27.00304,-24.77583 -0.62458,-15.97826 13.41659,-29.04521 29.69589,-29.47717 18.65568,-0.49501 33.85631,14.75485 34.21574,32.41909 0.40597,19.95278 -17.22665,36.1645 -37.63271,36.42305 -22.78255,0.28864 -41.25225,-18.42404 -41.42844,-40.06233 -0.19481,-23.92678 21.0368,-43.28914 45.56954,-43.36895 26.90906,-0.0875 48.65232,22.0933 48.64111,47.70556 -0.0122,27.90059 -24.84705,50.41686 -53.50636,50.31485 -31.03543,-0.11047 -56.05495,-25.76264 -55.85379,-55.3488 0.2167,-31.87428 28.65735,-57.54656 61.44318,-57.26074 35.16172,0.30653 63.45925,29.43204 63.06648,62.99204 -0.41954,35.84793 -32.46772,64.67758 -69.37999,64.20663 -39.28799,-0.50124 -70.86472,-33.10147 -70.27918,-70.63528 0.62123,-39.82156 36.27812,-71.80954 77.31681,-71.15253 43.41423,0.69504 78.27101,36.77095 77.49187,78.27852 -0.82208,43.79516 -40.08855,78.94221 -85.25364,78.09843 -47.54044,-0.88815 -85.67791,-40.44045 -84.70455,-85.92176 1.02232,-47.76875 43.89901,-86.07538 93.19045,-85.04433 51.66667,1.08073 93.08531,44.10998 91.91725,93.56502 -1.22208,51.74232 -47.70949,93.20895 -101.12728,91.99021 -55.79287,-1.27292 -100.493055,-47.77951 -99.129935,-101.20825 1.42147,-55.71592 51.519985,-100.34286 109.064095,-98.93611 59.91909,1.46479 107.90111,51.44905 106.34264,108.85149 -1.27293,46.88434 -35.10561,88.42448 -81.74848,101.50831"
       id="path4098" />
    <path
       inkscape:connector-curvature="0"
       style="fill:none;stroke:none"
       d="m 361.7683,544.70603 c -0.58886,-2.1742 2.60941,-2.53369 3.92001,-1.9096 3.2899,1.56657 3.23156,6.05673 1.31594,8.64892 -3.19197,4.31935 -9.58483,4.03417 -13.37785,0.72227 -5.39385,-4.70968 -4.86033,-13.14977 -0.1286,-18.10676 6.19451,-6.48941 16.72929,-5.69755 22.83568,0.46507 7.59557,7.66549 6.54073,20.31617 -1.05873,27.5646 -9.12944,8.70772 -23.90737,7.38745 -32.29352,-1.65241 -9.82357,-10.58932 -8.23645,-27.50129 2.24607,-37.02244 12.04666,-10.94183 31.09708,-9.08699 41.75136,2.83974 12.06176,13.5023 9.9386,34.69418 -3.43341,46.48028 -14.95675,13.18289 -38.29225,10.79101 -51.2092,-4.02708 -14.3049,-16.41033 -11.64402,-41.89105 4.62074,-55.93811 17.86327,-15.42761 45.49043,-12.49749 60.66704,5.21441 16.55085,19.3157 13.35132,49.09025 -5.80808,65.39596 -20.76774,17.67449 -52.69043,14.20544 -70.12487,-6.40175 -18.7985,-22.21947 -15.05981,-56.29091 6.99542,-74.8538 23.67094,-19.92276 59.89163,-15.91436 79.58271,7.58909 15.36998,18.34575 17.8473,44.86223 6.70322,65.95022"
       id="path4135" />
    <text
       transform="matrix(1.0303553,1.5714149,-1.5329002,1.0562433,611.88866,-553.30386)"
       xml:space="preserve"
       style="font-size:18px;font-style:normal;font-variant:normal;font-weight:bold;font-stretch:normal;text-align:start;line-height:125%;letter-spacing:0px;word-spacing:-1px;writing-mode:lr-tb;text-anchor:start;fill:#ffffff;fill-opacity:1;stroke:none;font-family:Franchise;-inkscape-font-specification:Franchise Bold"
       id="text4094"
       sodipodi:linespacing="125%"><textPath
         xlink:href="#path4098"
         id="textPath4119">“Jezme a pijme,” řekl Hugo.”Dejte sem večeři! Tučný sýr, zvěřinu, ptáky, jehňata, vše, co se líhne živé, a vše, co se líhne z vejce. Dejte sem vše, co zraje jedlého, vše, co je oploutveno, a všechny druhy plžů, kteří se požívají ve vzdělaných zemích. Dejte to sem! Je večer, země se otočila a tu bývá obyčej jísti.</textPath></text>
    <text
       xml:space="preserve"
       style="font-size:18px;font-style:normal;font-variant:normal;font-weight:bold;font-stretch:normal;text-align:start;line-height:125%;letter-spacing:0px;word-spacing:-1px;writing-mode:lr-tb;text-anchor:start;fill:#ffffff;fill-opacity:1;stroke:none;font-family:Franchise;-inkscape-font-specification:Franchise Bold"
       id="text4137"
       sodipodi:linespacing="125%"
       transform="matrix(-1.7698111,0.07630206,-0.07630206,-1.7698111,1254.3375,1147.3777)"><textPath
         xlink:href="#path4135"
         id="textPath4154"> “Majore, stal jste se žroutem nebo mluv<tspan
   style="font-size:22.16040802px;fill:#ffffff;fill-opacity:1"
   id="tspan3066">k</tspan>ou? Chcete ukázati zuby nebo jazyk? Není mi volno, mluví-li se příliš.  .ení vám volno? Vždyť jsme sotva počali s večeří.”</textPath></text>
    <text
       xml:space="preserve"
       style="font-size:29.41522216999999983px;font-style:normal;font-variant:normal;font-weight:normal;font-stretch:normal;text-align:start;line-height:0%;letter-spacing:0.29961230999999999px;word-spacing:0px;writing-mode:lr-tb;text-anchor:start;fill:#ffd700;fill-opacity:1;stroke:none;font-family:Caviar Dreams;-inkscape-font-specification:Caviar Dreams"
       x="231.72601"
       y="433.93619"
       id="text4917"
       sodipodi:linespacing="0%"
       transform="scale(1.0137064,0.98647892)"><tspan
         sodipodi:role="line"
         x="231.72601"
         y="433.93619"
         id="tspan4921"
         style="fill:#ffd700"><tspan
   style="font-weight:bold;fill:#ffd700;fill-opacity:1"
   id="tspan5209">ag</tspan>osto <tspan
   style="font-size:29.41522216999999983px;font-style:normal;font-variant:normal;font-weight:normal;font-stretch:normal;text-align:start;line-height:0%;letter-spacing:0.29961230999999999px;word-spacing:0px;writing-mode:lr-tb;text-anchor:start;fill:#ffd700;fill-opacity:1;font-family:Caviar Dreams;-inkscape-font-specification:Caviar Dreams"
   id="tspan3025">de</tspan> cine checo</tspan></text>
    <text
       xml:space="preserve"
       style="font-size:28.22266959999999969px;font-style:normal;font-variant:normal;font-weight:normal;font-stretch:normal;text-align:start;line-height:0%;letter-spacing:2.21935034000000009px;word-spacing:-5.72180653000000028px;writing-mode:lr-tb;text-anchor:start;fill:#ffffff;fill-opacity:1;stroke:none;font-family:Caviar Dreams;-inkscape-font-specification:Caviar Dreams"
       x="269.44168"
       y="381.30862"
       id="text4923"
       sodipodi:linespacing="0%"
       transform="scale(1.023211,0.97731552)"><tspan
         sodipodi:role="line"
         id="tspan4925"
         x="269.44168"
         y="381.30862"
         style="font-size:28.22266959999999969px;font-style:normal;font-variant:normal;font-weight:normal;font-stretch:normal;text-align:start;line-height:0%;letter-spacing:2.21935034000000009px;word-spacing:-5.72180653000000028px;writing-mode:lr-tb;text-anchor:start;fill:#ffffff;fill-opacity:1;font-family:Caviar Dreams;-inkscape-font-specification:Caviar Dreams">český filmový srpen</tspan></text>
    <text
       xml:space="preserve"
       style="font-size:29.01749610999999973px;font-style:normal;font-variant:normal;font-weight:normal;font-stretch:normal;text-align:start;line-height:0%;letter-spacing:2.21935034000000009px;word-spacing:0px;writing-mode:lr-tb;text-anchor:start;fill:#ffffff;fill-opacity:1;stroke:none;font-family:Caviar Dreams;-inkscape-font-specification:Caviar Dreams"
       x="284.5712"
       y="456.67358"
       id="text4929"
       sodipodi:linespacing="0%"><tspan
         sodipodi:role="line"
         id="tspan4931"
         x="284.5712"
         y="456.67358">czech film august</tspan></text>
    <text
       xml:space="preserve"
       style="font-size:29.41654395999999849px;font-style:normal;font-variant:normal;font-weight:normal;font-stretch:normal;text-align:start;line-height:0%;letter-spacing:0.53580123000000002px;word-spacing:0px;writing-mode:lr-tb;text-anchor:start;fill:#ffd700;fill-opacity:1;stroke:none;font-family:Caviar Dreams;-inkscape-font-specification:Caviar Dreams"
       x="231.82269"
       y="406.89529"
       id="text4937"
       sodipodi:linespacing="0%"
       transform="scale(1.0137519,0.98643465)"><tspan
         sodipodi:role="line"
         id="tspan4939"
         x="231.82269"
         y="406.89529"
         dx="0 0 0 0 0 0 0 0 0 0 0 0 0 0 0 0 0 0 -13.920316"
         style="fill:#ffd700"><tspan
   style="font-weight:bold;fill:#ffd700;fill-opacity:1"
   id="tspan5207">ag</tspan>ost del cinema  txec</tspan><tspan
         sodipodi:role="line"
         x="231.82269"
         y="406.89529"
         id="tspan4941"
         style="fill:#ffd700" /></text>
    <flowRoot
       xml:space="preserve"
       id="flowRoot3017"
       style="font-size:18px;font-style:normal;font-variant:normal;font-weight:normal;font-stretch:normal;text-align:start;line-height:123.00000191%;letter-spacing:0px;word-spacing:0px;writing-mode:lr-tb;text-anchor:start;fill:#000000;fill-opacity:1;stroke:none;font-family:Sans;-inkscape-font-specification:Sans"><flowRegion
         id="flowRegion3019"><rect
           id="rect3021"
           width="692.14288"
           height="245.71428"
           x="80.714287"
           y="415.93362" /></flowRegion><flowPara
         id="flowPara3023" /></flowRoot>    <text
       xml:space="preserve"
       style="font-size:18px;font-style:normal;font-variant:normal;font-weight:normal;font-stretch:normal;text-align:start;line-height:123.00000191%;letter-spacing:0px;word-spacing:0px;writing-mode:lr-tb;text-anchor:start;fill:#000000;fill-opacity:1;stroke:none;font-family:Sans;-inkscape-font-specification:Sans"
       x="555.71429"
       y="800.93359"
       id="text5412"
       sodipodi:linespacing="123%"><tspan
         sodipodi:role="line"
         id="tspan5414"
         x="555.71429"
         y="800.93359" /></text>
    <rect
       style="fill:#ffffff"
       y="242.23515"
       x="-593.44165"
       width="480.28162"
       height="160.09387"
       id="rect4423" />
    <flowRoot
       xml:space="preserve"
       id="flowRoot5236"
       style="font-size:18px;font-style:normal;font-variant:normal;font-weight:normal;font-stretch:normal;text-align:center;line-height:123.00000191%;letter-spacing:0px;word-spacing:0px;writing-mode:lr-tb;text-anchor:middle;fill:#999999;fill-opacity:1;stroke:none;font-family:Caviar Dreams;-inkscape-font-specification:Caviar Dreams"
       transform="matrix(0.75269804,0,0,0.75269804,64.662172,32.489755)"><flowRegion
         id="flowRegion5238"><rect
           id="rect5240"
           width="253.63336"
           height="812.75989"
           x="339.41125"
           y="570.51941"
           style="font-size:18px;font-style:normal;font-variant:normal;font-weight:normal;font-stretch:normal;text-align:center;line-height:123.00000191%;writing-mode:lr-tb;text-anchor:middle;fill:#999999;font-family:Caviar Dreams;-inkscape-font-specification:Caviar Dreams" /></flowRegion><flowPara
         id="flowPara5242">agosto.checo@gmail.com</flowPara><flowPara
         id="flowPara5434">Ramon Turro</flowPara><flowPara
         id="flowPara5280">Poble Nou</flowPara><flowPara
         id="flowPara5278">Barcelona</flowPara><flowPara
         id="flowPara7512" /><flowPara
         id="flowPara7514" /><flowPara
         id="flowPara5302" /><flowPara
         id="flowPara5304" /><flowPara
         id="flowPara5306" /><flowPara
         id="flowPara5308" /><flowPara
         id="flowPara5310" /><flowPara
         id="flowPara5312" /><flowPara
         id="flowPara5314" /><flowPara
         id="flowPara5316" /><flowPara
         id="flowPara5276" /></flowRoot>    <flowRoot
       transform="matrix(0.75269804,0,0,0.75269804,64.857485,97.72413)"
       style="font-size:18px;font-style:normal;font-variant:normal;font-weight:normal;font-stretch:normal;text-align:center;line-height:123.00000190999999461%;letter-spacing:0px;word-spacing:0px;writing-mode:lr-tb;text-anchor:middle;fill:#e6e6e6;fill-opacity:1;stroke:none;font-family:Caviar Dreams;-inkscape-font-specification:Caviar Dreams"
       id="flowRoot7520"
       xml:space="preserve"><flowRegion
         id="flowRegion7522"><rect
           style="font-size:18px;font-style:normal;font-variant:normal;font-weight:normal;font-stretch:normal;text-align:center;line-height:123.00000190999999461%;writing-mode:lr-tb;text-anchor:middle;fill:#e6e6e6;font-family:Caviar Dreams;-inkscape-font-specification:Caviar Dreams"
           y="570.51941"
           x="339.41125"
           height="812.75989"
           width="253.63336"
           id="rect7524" /></flowRegion><flowPara
         id="flowPara7534">BCN</flowPara><flowPara
         id="flowPara7570">BCN</flowPara><flowPara
         id="flowPara7572">BCN</flowPara><flowPara
         id="flowPara7574">bcn</flowPara><flowPara
         id="flowPara7576">bcn</flowPara><flowPara
         id="flowPara7578">bcn</flowPara><flowPara
         id="flowPara7580">bc</flowPara><flowPara
         id="flowPara7582">n</flowPara><flowPara
         id="flowPara7584">b</flowPara><flowPara
         id="flowPara7586">c</flowPara><flowPara
         id="flowPara7588">n</flowPara><flowPara
         id="flowPara7592">b</flowPara><flowPara
         id="flowPara7596">c</flowPara><flowPara
         id="flowPara7598">n</flowPara><flowPara
         id="flowPara7600">b</flowPara><flowPara
         id="flowPara7602">c</flowPara><flowPara
         id="flowPara7604">n</flowPara><flowPara
         id="flowPara7606">b</flowPara><flowPara
         id="flowPara7608">c</flowPara><flowPara
         id="flowPara7610">n</flowPara><flowPara
         id="flowPara7612">b</flowPara><flowPara
         id="flowPara7614">c</flowPara><flowPara
         id="flowPara7616">b</flowPara><flowPara
         id="flowPara7618">c</flowPara><flowPara
         id="flowPara7622">n</flowPara><flowPara
         id="flowPara7624">b</flowPara><flowPara
         id="flowPara7626">c</flowPara><flowPara
         id="flowPara7628">n</flowPara><flowPara
         id="flowPara7630">b</flowPara><flowPara
         id="flowPara7632">c</flowPara><flowPara
         id="flowPara7636" /><flowPara
         id="flowPara7536" /><flowPara
         id="flowPara7538" /><flowPara
         id="flowPara7540" /><flowPara
         id="flowPara7542" /><flowPara
         id="flowPara7544" /><flowPara
         id="flowPara7546" /><flowPara
         id="flowPara7548" /><flowPara
         id="flowPara7550" /><flowPara
         id="flowPara7554">c</flowPara></flowRoot>    <path
       style="fill:#a7a7a7;fill-opacity:0.15272725;stroke:none"
       d="M 46.5687,-1.4124527 225,413.84013 -14.123823,918.9731 -15.758776,-2.326467 z"
       id="path7651"
       inkscape:connector-curvature="0"
       sodipodi:nodetypes="ccccc" />
  </g>
  <g
     inkscape:groupmode="layer"
     id="layer8"
     inkscape:label="joe-original"
     style="display:none">
    <image
       style="display:inline"
       y="589.11066"
       x="-643.89703"
       id="image7094"
       xlink:href="file:///home/jakub/Desktop/kino/joe.png"
       height="357.79666"
       width="302.59375"
       transform="scale(-1,1)" />
  </g>
  <g
     inkscape:groupmode="layer"
     id="layer6"
     inkscape:label="joe"
     style="display:inline">
    <path
       style="fill:#000000;fill-opacity:1;stroke:none"
       d="m 750.29449,1034.6712 -246.24201,2.8468 28.32925,-1.9401 12.98422,-27.1613 -2.36077,-45.59235 14.16462,-4.85024 c 0,0 5.90192,8.73044 7.0823,12.61064 1.1804,3.88019 28.32925,-13.5807 28.32925,-13.5807 l 5.47726,-25.98297 12.48708,-10.52821 20.05816,-9.39451 15.66049,-1.35706 7.74848,-5.15888 57.7874,-7.72141 37.54352,-8.45422"
       id="path7084"
       inkscape:connector-curvature="0"
       sodipodi:nodetypes="ccccccscccccccc" />
    <path
       id="path7109"
       style="fill:#000000;fill-opacity:1;stroke:none"
       d="m 475.78126,641.03405 3.61328,-2.49023 4.49218,-2.14844 3.71094,-0.92773 11.13281,-0.19531 5.17579,0.97656 7.1289,3.07617 5.81055,3.66211 -0.87891,3.75976 -1.31836,0.78125 -0.63476,8.20313 4.24805,1.66016 5.44433,2.88086 4.12598,2.88085 3.49121,2.70997 -0.12207,2.34375 -3.2959,1.44043 -4.82455,-0.0769 -0.13151,3.88551 16.21094,2.24609 5.71289,3.4668 4.15039,4.54102 8.20313,9.375 7.08008,4.58984 12.64648,18.79881 2.34375,5.02929 1.95313,-0.97656 10.35156,15.03906 0.29297,3.41797 2.14843,0.58594 4.78516,12.40234 5.85938,7.42188 6.83593,2.73437 4.88282,10.83985 4.58984,9.66797 8.59375,17.28515 2.63672,6.64063 -1.5625,3.02734 -2.53906,-0.58594 23.24219,30.56641 9.17968,5.56641 6.54471,10.18844 7.31966,8.32094 3.65983,-0.34527 2.69308,2.48592 15.81323,22.2352 3.38362,7.80303 0.34526,14.77743 -2.34781,8.07924 -6.35291,4.0051 -13.60352,-0.41432 -0.0691,-11.1176 1.45012,-6.62912 -14.225,-18.78253 -6.76723,-8.63167 -5.38616,-4.35037 -14.36311,-17.3324 -24.50903,-17.60861 -15.5419,-16.36566 -6.49102,-2.62403 -13.67257,17.67767 -4.28131,8.0102 -6.49102,7.18155 1.79539,4.1432 3.72888,-0.27621 23.06383,11.73908 6.21481,2.20971 25.68786,17.12524 9.94369,4.41941 4.83374,4.28132 2.90024,5.38616 7.18156,2.20971 2.0716,2.48592 -9.20586,4.51444 -8.62142,0.67488 -25.53026,10.30525 9.31611,-11.16226 -43.30049,-26.33774 -30.85937,-10.9375 -7.8125,-7.42188 -1.61133,-1.61133 0.19531,-11.37695 4.18224,-10.10698 0.75959,-5.24806 1.24296,0.069 -0.34527,-8.83883 4.01024,0.18882 2.79672,-9.07176 -1.17187,-13.28125 3.02734,-11.6211 7.03125,-5.85937 1.17188,-1.95313 -3.32031,-4.88281 -0.29297,-8.20312 -8.10547,-4.88282 -10.35156,-6.64062 -10.15625,-6.64063 -0.58594,-8.39843 -5.66406,-5.27344 0,-9.375 -3.32032,-2.53906 1.36719,-10.54688 -3.71094,-2.14844 0.20614,-6.60695 -5.86954,-2.34782 -7.52682,-0.48337 -10.0818,-1.9335 -2.0716,-0.24168 -0.37979,4.90279 0,9.42579 -1.38107,2.00255 -0.34527,2.96929 0.58696,2.31329 0.17263,11.22118 -1.65728,1.13938 -0.58696,5.83501 -3.55625,-0.82864 0.13811,-6.38744 0.96675,-0.20716 1.41559,-5.42069 0.13811,-12.49867 1.17391,-0.79411 -0.13811,-6.42197 -0.62148,-6.42196 -0.5179,-4.48847 m -0.0448,-0.0589 -18.84765,-4.78515 2.92969,-6.9336 1.95312,-3.125 -5.95703,-4.10156 -5.07813,0.19531 -8.6914,-3.80859 10.05859,-6.83594 4.58985,0.19531 2.24609,-4.78515 0,-2.2461 -4.6875,-1.5625 -4.78516,-0.58593 -4.19922,-2.63672 -2.05078,-2.83203 0.19532,-1.95313 3.51562,-0.73242 5.7129,-0.5371 11.62109,0.14647 0.68359,-13.57421"
       inkscape:connector-curvature="0"
       sodipodi:nodetypes="ccccccccccccccccccccccccccccccccccccccccccccccccccccccccccccccccccccccccccccccccccccccccccccccccccccccccccccccccccccccccccccccccccccccccccccccccc" />
  </g>
</svg>
